<svg id="Vector_Smart_Object" data-name="Vector Smart Object" xmlns="http://www.w3.org/2000/svg" xmlns:xlink="http://www.w3.org/1999/xlink" width="198" height="58" viewBox="0 0 198 58">
  <defs>
    <clipPath id="clip-path">
      <rect id="Retângulo_45" data-name="Retângulo 45" width="198" height="58" fill="none"/>
    </clipPath>
  </defs>
  <g id="Grupo_46" data-name="Grupo 46">
    <g id="Grupo_45" data-name="Grupo 45" clip-path="url(#clip-path)">
      <path id="Caminho_125" data-name="Caminho 125" d="M42,29.841,24.789,46.729V12.954L42,29.841" fill="#fff"/>
      <path id="Caminho_126" data-name="Caminho 126" d="M47.758,24.187l-4.911,4.822L26.093,12.569l.082-.119c7.2,3.848,14.6,7.327,21.583,11.737" fill="#fff"/>
      <path id="Caminho_127" data-name="Caminho 127" d="M26.4,46.811,42.847,30.675,47.4,35.141,26.5,46.953l-.1-.142" fill="#fff"/>
      <path id="Caminho_128" data-name="Caminho 128" d="M48.262,34.554a7.206,7.206,0,0,0-.635-.841c-1.288-1.287-2.593-2.557-3.818-3.76.661-.725,1.279-1.443,1.939-2.117.913-.932,1.863-1.827,2.784-2.75a.463.463,0,0,1,.676-.107c1.926,1.15,3.869,2.27,5.8,3.414a1.187,1.187,0,0,1,.147,2.105c-2.224,1.343-4.476,2.639-6.892,4.056" fill="#fff"/>
      <path id="Caminho_129" data-name="Caminho 129" d="M106.355,39.445a5.279,5.279,0,0,1-7.343-.5,5.123,5.123,0,0,1,.293-6.581,5.271,5.271,0,0,1,7.1-.065V31.107h2.256v.555c0,2.649,0,5.3-.005,7.948a10.144,10.144,0,0,1-.1,1.4,4.142,4.142,0,0,1-3.389,3.755,8.937,8.937,0,0,1-5.583-.525,11.977,11.977,0,0,1-1.162-.662l1.037-1.782c.141.082.26.148.375.219a6.1,6.1,0,0,0,4.344.86,2.338,2.338,0,0,0,2.078-2.14c.066-.386.063-.785.1-1.288m-2.94-.748a3.967,3.967,0,0,0,.487-.035,2.664,2.664,0,0,0,2.34-1.994,2.769,2.769,0,0,0-.857-3.033,3.382,3.382,0,0,0-4.108.008,2.887,2.887,0,0,0,2.138,5.055" fill="#fff"/>
      <path id="Caminho_130" data-name="Caminho 130" d="M69.451,34.414H71.7a3.325,3.325,0,0,1,.046.382c0,1.5.014,2.992-.012,4.488a.9.9,0,0,1-.307.613,8.182,8.182,0,0,1-8.77.357,6.756,6.756,0,0,1-2.912-7.177,6.59,6.59,0,0,1,5.408-5.216,7.606,7.606,0,0,1,5.171.745,16.412,16.412,0,0,1,1.587,1.152L70.374,31.34c-.092-.072-.2-.152-.306-.24a4.984,4.984,0,0,0-5.055-.922,4.676,4.676,0,0,0,.726,8.923,5.6,5.6,0,0,0,3.335-.384.567.567,0,0,0,.384-.613c-.018-1.206-.007-2.413-.007-3.69" fill="#fff"/>
      <path id="Caminho_131" data-name="Caminho 131" d="M136.507,37.389v3.739h-2.384V28.008c.045-.032.074-.069.1-.068a63.267,63.267,0,0,1,6.9.18,4.591,4.591,0,0,1-.508,9.128c-1.247.137-2.516.076-3.774.1-.087,0-.174.018-.339.037m.035-2.171c1.185,0,2.335.012,3.485-.009a3.062,3.062,0,0,0,.882-.183,2.3,2.3,0,0,0,1.659-2.366,2.285,2.285,0,0,0-1.646-2.428c-1.436-.449-2.909-.151-4.38-.239Z" fill="#fff"/>
      <path id="Caminho_132" data-name="Caminho 132" d="M126.424,36.87H118.7c.039,2.027,3.4,3.535,5.892,1.37l1.267,1.48a9.329,9.329,0,0,1-1.455,1.009,6.08,6.08,0,0,1-5.823-.289,5.065,5.065,0,0,1-2.156-5.6,4.876,4.876,0,0,1,4.226-3.854,4.939,4.939,0,0,1,5.815,5.294c0,.175-.027.35-.046.585m-2.218-1.59a2.7,2.7,0,0,0-3.067-2.433,2.542,2.542,0,0,0-2.422,2.433Z" fill="#fff"/>
      <path id="Caminho_133" data-name="Caminho 133" d="M158.77,35.255a1.987,1.987,0,0,0-1.942-2.313,5.066,5.066,0,0,0-3.535.954l-.9-1.691a5.313,5.313,0,0,1,3.019-1.165,10.873,10.873,0,0,1,2.9.131,3.212,3.212,0,0,1,2.727,3.114c.115,2.262.029,4.534.029,6.842h-2.128v-1.04a6.247,6.247,0,0,1-.979.724,4.67,4.67,0,0,1-4.545-.14,2.659,2.659,0,0,1-1.308-2.754,2.474,2.474,0,0,1,1.782-2.268,11.316,11.316,0,0,1,2.456-.38c.791-.061,1.589-.013,2.417-.013m-.027,1.53c-1.11.051-2.21.05-3.3.17a1.124,1.124,0,0,0-1.058,1.16,1.193,1.193,0,0,0,.928,1.285,4.369,4.369,0,0,0,1.728.069c1.338-.256,1.907-1.167,1.7-2.684" fill="#fff"/>
      <path id="Caminho_134" data-name="Caminho 134" d="M78.96,30.941c3.866.054,6.172,2.945,5.408,6.426a4.733,4.733,0,0,1-2.658,3.381,5.522,5.522,0,0,1-6.959-1.686,5.2,5.2,0,0,1-.232-5.493,4.849,4.849,0,0,1,4.441-2.628m3.187,5.189a2.957,2.957,0,1,0-5.9-.01,2.955,2.955,0,1,0,5.9.01" fill="#fff"/>
      <path id="Caminho_135" data-name="Caminho 135" d="M91.336,41.295A5.143,5.143,0,0,1,86.069,34.8a4.868,4.868,0,0,1,4.293-3.782,7.519,7.519,0,0,1,2.475.156,5.164,5.164,0,0,1-.9,10.087c-.247.023-.5.027-.6.033m-3.055-5.225a2.956,2.956,0,1,0,5.9.112,2.943,2.943,0,0,0-2.9-3.232,2.91,2.91,0,0,0-3,3.121" fill="#fff"/>
      <path id="Caminho_136" data-name="Caminho 136" d="M162.068,44.082l.855-1.595a11.4,11.4,0,0,0,1.932.487,2.026,2.026,0,0,0,1.763-1.742,1.191,1.191,0,0,0-.146-.455q-1.917-4.484-3.838-8.967c-.091-.212-.174-.427-.3-.745.794,0,1.527-.02,2.256.02.12.006.264.256.334.422.9,2.117,1.782,4.24,2.671,6.36.076.181.158.359.275.622.112-.245.2-.417.269-.592.881-2.085,1.778-4.164,2.626-6.262a.772.772,0,0,1,.9-.585c.491.041.989.009,1.544.009-.057.185-.086.317-.139.439-1.527,3.586-3.048,7.176-4.589,10.756-1.046,2.43-3.111,3.332-5.422,2.383a9.417,9.417,0,0,1-.993-.556" fill="#fff"/>
      <rect id="Retângulo_42" data-name="Retângulo 42" width="2.237" height="14.003" transform="translate(111.768 27.141)" fill="#fff"/>
      <rect id="Retângulo_43" data-name="Retângulo 43" width="2.254" height="13.99" transform="translate(147.447 27.148)" fill="#fff"/>
      <path id="Caminho_137" data-name="Caminho 137" d="M63.65,20.076V11.558h3.62a3.6,3.6,0,0,1,2.176.572,1.9,1.9,0,0,1,.773,1.618,2.053,2.053,0,0,1-.318,1.168,1.988,1.988,0,0,1-.863.718,2.892,2.892,0,0,1-1.193.243l.2-.292a3.5,3.5,0,0,1,1.384.249,1.992,1.992,0,0,1,.9.742,2.181,2.181,0,0,1,.324,1.223,1.986,1.986,0,0,1-.785,1.679,3.893,3.893,0,0,1-2.367.6Zm.887-.742H67.5a3.1,3.1,0,0,0,1.69-.383,1.353,1.353,0,0,0,.587-1.223,1.341,1.341,0,0,0-.587-1.211,3.1,3.1,0,0,0-1.69-.383H64.441v-.742H67.21A2.7,2.7,0,0,0,68.774,15a1.318,1.318,0,0,0,.557-1.156,1.316,1.316,0,0,0-.557-1.162A2.737,2.737,0,0,0,67.21,12.3H64.537Z" fill="#fff"/>
      <path id="Caminho_138" data-name="Caminho 138" d="M74.282,20.137a2.945,2.945,0,0,1-1.229-.237,1.832,1.832,0,0,1-.8-.657,1.721,1.721,0,0,1-.276-.967,1.79,1.79,0,0,1,.234-.906,1.654,1.654,0,0,1,.767-.657,3.427,3.427,0,0,1,1.432-.249h2.169v.645H74.438a1.867,1.867,0,0,0-1.265.329,1.068,1.068,0,0,0-.354.815,1.056,1.056,0,0,0,.42.876,1.863,1.863,0,0,0,1.175.329,2.247,2.247,0,0,0,1.241-.335,1.917,1.917,0,0,0,.761-.967l.192.6a2.022,2.022,0,0,1-.833,1.01,2.732,2.732,0,0,1-1.492.377m2.169-.061V18.665l-.036-.231V16.073a1.671,1.671,0,0,0-.45-1.253,1.843,1.843,0,0,0-1.336-.438,3.282,3.282,0,0,0-1.163.207,2.957,2.957,0,0,0-.935.547l-.383-.645a3.388,3.388,0,0,1,1.151-.639,4.419,4.419,0,0,1,1.414-.225,2.681,2.681,0,0,1,1.888.615,2.423,2.423,0,0,1,.665,1.868v3.967Z" fill="#fff"/>
      <path id="Caminho_139" data-name="Caminho 139" d="M80.011,12.276a.618.618,0,0,1-.623-.62.582.582,0,0,1,.18-.432.609.609,0,0,1,.443-.176.621.621,0,0,1,.444.17.562.562,0,0,1,.18.426.628.628,0,0,1-.174.45.593.593,0,0,1-.45.182m-.431,1.412h.851v6.388H79.58Z" fill="#fff"/>
      <path id="Caminho_140" data-name="Caminho 140" d="M81.845,20.076l2.661-3.5L84.494,17l-2.529-3.31h.959L85,16.426l-.36-.012,2.074-2.726h.935l-2.553,3.346.012-.462,2.685,3.5h-.971l-2.193-2.92.336.049L82.8,20.076Z" fill="#fff"/>
      <path id="Caminho_141" data-name="Caminho 141" d="M91.65,20.137a3.449,3.449,0,0,1-1.726-.42,3.024,3.024,0,0,1-1.163-1.156,3.342,3.342,0,0,1-.42-1.685,3.426,3.426,0,0,1,.4-1.679,2.99,2.99,0,0,1,2.679-1.57A3.038,3.038,0,0,1,93,14.035a2.885,2.885,0,0,1,1.085,1.144,3.531,3.531,0,0,1,.4,1.7q0,.061-.006.128t-.006.14H88.989V16.5h5.022l-.336.256a2.55,2.55,0,0,0-.294-1.235,2.183,2.183,0,0,0-.8-.846,2.205,2.205,0,0,0-1.163-.3,2.245,2.245,0,0,0-1.163.3,2.1,2.1,0,0,0-.8.852,2.654,2.654,0,0,0-.288,1.253v.134a2.533,2.533,0,0,0,.318,1.284,2.232,2.232,0,0,0,.887.864,2.673,2.673,0,0,0,1.3.31,2.764,2.764,0,0,0,1.073-.207,2.23,2.23,0,0,0,.857-.633l.479.56a2.7,2.7,0,0,1-1.049.779,3.5,3.5,0,0,1-1.384.268" fill="#fff"/>
      <path id="Caminho_142" data-name="Caminho 142" d="M101.922,20.137a3.205,3.205,0,0,1-1.636-.42,3.061,3.061,0,0,1-1.145-1.156,3.606,3.606,0,0,1,0-3.377,3.044,3.044,0,0,1,1.139-1.144,3.235,3.235,0,0,1,1.642-.414,3.293,3.293,0,0,1,1.66.414,2.99,2.99,0,0,1,1.139,1.144,3.653,3.653,0,0,1,0,3.377,3.007,3.007,0,0,1-1.145,1.156,3.262,3.262,0,0,1-1.654.42m0-.767a2.343,2.343,0,0,0,1.211-.31,2.211,2.211,0,0,0,.833-.876,2.964,2.964,0,0,0,0-2.622,2.222,2.222,0,0,0-.833-.87,2.47,2.47,0,0,0-2.4,0,2.264,2.264,0,0,0-.839.87,2.914,2.914,0,0,0,0,2.622,2.251,2.251,0,0,0,.839.876,2.3,2.3,0,0,0,1.187.31" fill="#fff"/>
      <path id="Caminho_143" data-name="Caminho 143" d="M111.786,20.137a2.945,2.945,0,0,1-1.229-.237,1.832,1.832,0,0,1-.8-.657,1.721,1.721,0,0,1-.276-.967,1.79,1.79,0,0,1,.234-.906,1.654,1.654,0,0,1,.767-.657,3.427,3.427,0,0,1,1.432-.249h2.169v.645h-2.145a1.867,1.867,0,0,0-1.265.329,1.068,1.068,0,0,0-.354.815,1.056,1.056,0,0,0,.42.876,1.863,1.863,0,0,0,1.175.329,2.247,2.247,0,0,0,1.241-.335,1.917,1.917,0,0,0,.761-.967l.192.6a2.022,2.022,0,0,1-.833,1.01,2.732,2.732,0,0,1-1.492.377m2.169-.061V18.665l-.036-.231V16.073a1.671,1.671,0,0,0-.45-1.253,1.842,1.842,0,0,0-1.336-.438,3.282,3.282,0,0,0-1.163.207,2.957,2.957,0,0,0-.935.547l-.383-.645a3.388,3.388,0,0,1,1.151-.639,4.419,4.419,0,0,1,1.414-.225,2.681,2.681,0,0,1,1.888.615,2.423,2.423,0,0,1,.665,1.868v3.967Z" fill="#fff"/>
      <path id="Caminho_144" data-name="Caminho 144" d="M117.084,22.437V13.688h.815V15.61l-.084,1.278.12,1.29v4.259Zm3.248-2.3a2.88,2.88,0,0,1-1.474-.383,2.755,2.755,0,0,1-1.049-1.107,3.694,3.694,0,0,1-.389-1.771,3.741,3.741,0,0,1,.383-1.77,2.675,2.675,0,0,1,1.043-1.1,2.939,2.939,0,0,1,1.486-.377,3.191,3.191,0,0,1,1.612.408,2.918,2.918,0,0,1,1.121,1.144,3.751,3.751,0,0,1,0,3.4,2.972,2.972,0,0,1-1.121,1.144,3.154,3.154,0,0,1-1.612.414m-.06-.767a2.32,2.32,0,0,0,1.2-.31,2.254,2.254,0,0,0,.839-.876,2.668,2.668,0,0,0,.312-1.308,2.634,2.634,0,0,0-.312-1.3,2.313,2.313,0,0,0-.839-.876,2.285,2.285,0,0,0-1.2-.316,2.315,2.315,0,0,0-1.2.316,2.254,2.254,0,0,0-.839.876,2.675,2.675,0,0,0-.306,1.3,2.71,2.71,0,0,0,.306,1.308,2.2,2.2,0,0,0,.839.876,2.351,2.351,0,0,0,1.2.31" fill="#fff"/>
      <path id="Caminho_145" data-name="Caminho 145" d="M125.211,22.437V13.688h.815V15.61l-.084,1.278.12,1.29v4.259Zm3.248-2.3a2.88,2.88,0,0,1-1.474-.383,2.755,2.755,0,0,1-1.049-1.107,3.694,3.694,0,0,1-.389-1.771,3.741,3.741,0,0,1,.383-1.77,2.675,2.675,0,0,1,1.043-1.1,2.939,2.939,0,0,1,1.486-.377,3.191,3.191,0,0,1,1.612.408,2.918,2.918,0,0,1,1.121,1.144,3.751,3.751,0,0,1,0,3.4,2.972,2.972,0,0,1-1.121,1.144,3.154,3.154,0,0,1-1.612.414m-.06-.767a2.32,2.32,0,0,0,1.2-.31,2.254,2.254,0,0,0,.839-.876,2.668,2.668,0,0,0,.312-1.308,2.634,2.634,0,0,0-.312-1.3,2.313,2.313,0,0,0-.839-.876,2.285,2.285,0,0,0-1.2-.316,2.315,2.315,0,0,0-1.2.316,2.254,2.254,0,0,0-.839.876,2.675,2.675,0,0,0-.306,1.3,2.71,2.71,0,0,0,.306,1.308,2.2,2.2,0,0,0,.839.876,2.351,2.351,0,0,0,1.2.31" fill="#fff"/>
      <rect id="Retângulo_44" data-name="Retângulo 44" width="196.935" height="56.918" rx="28.246" transform="translate(0.533 0.541)" fill="none" stroke="#fff" stroke-miterlimit="10" stroke-width="1.074"/>
    </g>
  </g>
</svg>
