<svg xmlns="http://www.w3.org/2000/svg" width="24.003" height="24.003" viewBox="0 0 24.003 24.003"><g transform="translate(-80 -145)"><path d="M23.952,18.6a.955.955,0,0,1,.051.358,5.627,5.627,0,0,1-.17,1.2,6.773,6.773,0,0,1-.358,1.168,4.571,4.571,0,0,1-2.08,1.807A6.61,6.61,0,0,1,18.224,24a6.765,6.765,0,0,1-.9-.06,7,7,0,0,1-.98-.213q-.537-.153-.8-.247t-.946-.349q-.682-.256-.835-.307a15.44,15.44,0,0,1-2.983-1.415,25.7,25.7,0,0,1-4.5-3.682,25.7,25.7,0,0,1-3.682-4.5,15.44,15.44,0,0,1-1.415-2.983q-.051-.153-.307-.835T.52,8.464Q.426,8.2.273,7.663a7,7,0,0,1-.213-.98,6.765,6.765,0,0,1-.06-.9A6.61,6.61,0,0,1,.869,2.608,4.571,4.571,0,0,1,2.676.528,6.773,6.773,0,0,1,3.844.17,5.627,5.627,0,0,1,5.046,0,.955.955,0,0,1,5.4.051q.307.1.9,1.3.188.324.511.921t.6,1.083q.273.486.528.912.051.068.3.426a4.761,4.761,0,0,1,.367.605,1.112,1.112,0,0,1,.119.486,1.415,1.415,0,0,1-.486.852,8.31,8.31,0,0,1-1.057.938,10.267,10.267,0,0,0-1.057.9,1.3,1.3,0,0,0-.486.784,1.152,1.152,0,0,0,.085.384,3.721,3.721,0,0,0,.145.349q.06.119.239.409t.2.324a17.894,17.894,0,0,0,2.966,4.006A17.894,17.894,0,0,0,13.28,17.7q.034.017.324.2t.409.239a3.721,3.721,0,0,0,.349.145,1.152,1.152,0,0,0,.384.085,1.3,1.3,0,0,0,.784-.486,10.267,10.267,0,0,0,.9-1.057,8.31,8.31,0,0,1,.938-1.057,1.415,1.415,0,0,1,.852-.486,1.112,1.112,0,0,1,.486.119,4.761,4.761,0,0,1,.605.367q.358.247.426.3.426.256.912.528t1.083.6q.6.324.921.511Q23.85,18.292,23.952,18.6Z" transform="translate(80 145)" fill="#fff"/></g></svg>