<svg xmlns="http://www.w3.org/2000/svg" width="22.738" height="16.018" viewBox="0 0 22.738 16.018"><g transform="translate(-1213.014 -226)"><path d="M9.036,4.564v6.394L15.177,7.78ZM3.428.229Q6.613,0,11.383,0,13.515,0,15.5.057t2.912.121l.926.051.216.019a2.82,2.82,0,0,1,.292.038q.089.019.3.057a1.764,1.764,0,0,1,.362.1q.152.064.355.165a2.439,2.439,0,0,1,.393.248,3.011,3.011,0,0,1,.368.337,2.428,2.428,0,0,1,.2.235,4.273,4.273,0,0,1,.368.744,4.848,4.848,0,0,1,.336,1.284q.1.814.159,1.735t.07,1.443V8.873a26.965,26.965,0,0,1-.228,3.687,5.08,5.08,0,0,1-.317,1.265,3.239,3.239,0,0,1-.406.782l-.178.216a3.011,3.011,0,0,1-.368.337,2.137,2.137,0,0,1-.393.242q-.2.1-.355.159a1.765,1.765,0,0,1-.362.1l-.3.057q-.1.019-.292.038l-.209.019q-3.185.242-7.955.242-2.626-.025-4.561-.083t-2.544-.1l-.622-.051L3.2,15.738a6.013,6.013,0,0,1-.691-.127,3.894,3.894,0,0,1-.647-.267,2.538,2.538,0,0,1-.717-.521,2.428,2.428,0,0,1-.2-.235,4.273,4.273,0,0,1-.368-.744A4.848,4.848,0,0,1,.243,12.56q-.1-.814-.159-1.735T.015,9.382V7.144A26.965,26.965,0,0,1,.243,3.458,5.08,5.08,0,0,1,.561,2.193a3.239,3.239,0,0,1,.406-.782l.178-.216A3.011,3.011,0,0,1,1.512.858,2.439,2.439,0,0,1,1.905.61q.2-.1.355-.165a1.764,1.764,0,0,1,.362-.1q.209-.038.3-.057A2.82,2.82,0,0,1,3.212.248Z" transform="translate(1213 226)" fill="#fff"/></g></svg>