<svg xmlns="http://www.w3.org/2000/svg" width="20.983" height="20.983" viewBox="0 0 20.983 20.983"><g transform="translate(-1213 -153)"><path d="M16.051,8.073a5.576,5.576,0,0,0,1.434-1.489,6.077,6.077,0,0,1-1.653.464,2.788,2.788,0,0,0,1.27-1.6,5.705,5.705,0,0,1-1.831.7,2.726,2.726,0,0,0-2.09-.9,2.868,2.868,0,0,0-2.869,2.869,2.632,2.632,0,0,0,.068.656,8.122,8.122,0,0,1-3.306-.888A8.132,8.132,0,0,1,4.453,5.765a2.841,2.841,0,0,0-.4,1.448A2.706,2.706,0,0,0,5.3,9.6a3.384,3.384,0,0,1-1.366-.355v.027A2.728,2.728,0,0,0,4.617,11.1a2.869,2.869,0,0,0,1.68.99,2.665,2.665,0,0,1-.7.109,3.848,3.848,0,0,1-.533-.055,2.916,2.916,0,0,0,1.018,1.421,2.726,2.726,0,0,0,1.66.574A5.668,5.668,0,0,1,4.18,15.368a5.506,5.506,0,0,1-.683-.041,8.047,8.047,0,0,0,4.4,1.284,8.359,8.359,0,0,0,2.869-.485,7.389,7.389,0,0,0,2.295-1.3,8.616,8.616,0,0,0,1.646-1.872,8.267,8.267,0,0,0,1.359-4.515A3.642,3.642,0,0,0,16.051,8.073Zm3.777-6.919a3.789,3.789,0,0,1,1.154,2.78V17.048a3.941,3.941,0,0,1-3.934,3.934H3.934a3.789,3.789,0,0,1-2.78-1.154A3.789,3.789,0,0,1,0,17.048V3.934a3.789,3.789,0,0,1,1.154-2.78A3.789,3.789,0,0,1,3.934,0H17.048A3.789,3.789,0,0,1,19.828,1.154Z" transform="translate(1213 153)" fill="#fff"/></g></svg>