<svg xmlns="http://www.w3.org/2000/svg" width="216.069" height="54.542" viewBox="0 0 216.069 54.542"><g transform="translate(0.5 0.5)"><g transform="translate(0 0)"><g transform="translate(0 0)"><g transform="translate(0 0)"><rect width="215.069" height="53.543" rx="26.771" fill="none" stroke="#fff" stroke-width="1"/><g transform="translate(65.368 24.677)"><g transform="translate(0 0.639)"><path d="M950.473,525.433h2.455V531a7.806,7.806,0,0,1-2.515,1.318,9.659,9.659,0,0,1-2.955.459,7.966,7.966,0,0,1-3.853-.928,6.891,6.891,0,0,1-2.695-2.565,7.462,7.462,0,0,1,0-7.386,6.877,6.877,0,0,1,2.7-2.565,8.067,8.067,0,0,1,3.883-.928,8.482,8.482,0,0,1,3.194.579,6.276,6.276,0,0,1,2.416,1.7l-1.637,1.6a5.251,5.251,0,0,0-3.853-1.6,5.446,5.446,0,0,0-2.625.619,4.512,4.512,0,0,0-1.8,1.737,5,5,0,0,0-.649,2.555,4.919,4.919,0,0,0,.649,2.515,4.647,4.647,0,0,0,1.8,1.757,5.261,5.261,0,0,0,2.605.639,5.622,5.622,0,0,0,2.875-.719Z" transform="translate(-939.933 -518.406)" fill="#fff"/></g><g transform="translate(15.291 4.032)"><path d="M1152.223,575.131a5.1,5.1,0,0,1-2.026-1.946,5.82,5.82,0,0,1,0-5.64,5.117,5.117,0,0,1,2.026-1.936,6.471,6.471,0,0,1,5.849,0,5.12,5.12,0,0,1,2.026,1.936,5.82,5.82,0,0,1,0,5.64,5.1,5.1,0,0,1-2.026,1.946,6.471,6.471,0,0,1-5.849,0Zm5.19-2.356a3.7,3.7,0,0,0,0-4.831,3.049,3.049,0,0,0-2.276-.918,3.018,3.018,0,0,0-2.266.918,3.728,3.728,0,0,0,0,4.831,3.017,3.017,0,0,0,2.266.918A3.048,3.048,0,0,0,1157.413,572.775Z" transform="translate(-1149.468 -564.91)" fill="#fff"/></g><g transform="translate(28.167 4.032)"><path d="M1328.659,575.131a5.094,5.094,0,0,1-2.026-1.946,5.82,5.82,0,0,1,0-5.64,5.116,5.116,0,0,1,2.026-1.936,6.471,6.471,0,0,1,5.849,0,5.122,5.122,0,0,1,2.026,1.936,5.821,5.821,0,0,1,0,5.64,5.1,5.1,0,0,1-2.026,1.946,6.471,6.471,0,0,1-5.849,0Zm5.19-2.356a3.7,3.7,0,0,0,0-4.831,3.05,3.05,0,0,0-2.276-.918,3.017,3.017,0,0,0-2.266.918,3.729,3.729,0,0,0,0,4.831,3.016,3.016,0,0,0,2.266.918A3.049,3.049,0,0,0,1333.849,572.775Z" transform="translate(-1325.904 -564.91)" fill="#fff"/></g><g transform="translate(41.043 4.032)"><path d="M1513.8,565.03v9.043q0,5.629-5.75,5.629a10.675,10.675,0,0,1-2.914-.389,6.19,6.19,0,0,1-2.276-1.128l1.118-1.877a5.338,5.338,0,0,0,1.766.928,6.935,6.935,0,0,0,2.166.349,3.575,3.575,0,0,0,2.575-.8,3.264,3.264,0,0,0,.819-2.435v-.559a4.1,4.1,0,0,1-1.557,1.058,5.488,5.488,0,0,1-2.016.359,5.778,5.778,0,0,1-2.745-.649,4.868,4.868,0,0,1-1.937-1.826,5.459,5.459,0,0,1,0-5.38,4.825,4.825,0,0,1,1.937-1.807,5.855,5.855,0,0,1,2.745-.639,5.629,5.629,0,0,1,2.106.379,3.889,3.889,0,0,1,1.587,1.158V565.03Zm-3.364,7.217a2.881,2.881,0,0,0,.908-2.206,2.826,2.826,0,0,0-.908-2.176,3.673,3.673,0,0,0-4.672,0,2.824,2.824,0,0,0-.908,2.176,2.879,2.879,0,0,0,.908,2.206,3.64,3.64,0,0,0,4.672,0Z" transform="translate(-1502.34 -564.91)" fill="#fff"/></g><g transform="translate(55.775)"><path d="M1704.214,509.653h2.5v14.812h-2.5Z" transform="translate(-1704.214 -509.653)" fill="#fff"/></g><g transform="translate(60.665 4.032)"><path d="M1782.089,571.158h-8.365a2.9,2.9,0,0,0,1.148,1.866,3.761,3.761,0,0,0,2.305.689,3.885,3.885,0,0,0,2.895-1.158l1.338,1.537a4.505,4.505,0,0,1-1.817,1.3,7.2,7.2,0,0,1-5.569-.259,5.033,5.033,0,0,1-2.066-1.946,5.493,5.493,0,0,1-.729-2.825,5.579,5.579,0,0,1,.708-2.8,5.031,5.031,0,0,1,1.967-1.946,5.739,5.739,0,0,1,2.834-.7,5.594,5.594,0,0,1,2.785.689,4.879,4.879,0,0,1,1.916,1.936,5.875,5.875,0,0,1,.689,2.885C1782.129,570.593,1782.115,570.839,1782.089,571.158Zm-7.376-3.543a2.984,2.984,0,0,0-1.008,1.887h6.049a2.945,2.945,0,0,0-.979-1.876,2.975,2.975,0,0,0-2.036-.719A3.012,3.012,0,0,0,1774.713,567.615Z" transform="translate(-1771.229 -564.91)" fill="#fff"/></g><g transform="translate(79.709 0.838)"><path d="M2041.1,521.741a4.6,4.6,0,0,1,2.065,1.717,5.242,5.242,0,0,1,0,5.3,4.574,4.574,0,0,1-2.065,1.727,7.738,7.738,0,0,1-3.165.6h-3.154v4.032h-2.6V521.142h5.75A7.738,7.738,0,0,1,2041.1,521.741Zm-.709,6.428a2.846,2.846,0,0,0,0-4.112,3.988,3.988,0,0,0-2.575-.719h-3.034v5.55h3.034A3.988,3.988,0,0,0,2040.4,528.169Z" transform="translate(-2032.19 -521.142)" fill="#fff"/></g><g transform="translate(93.962)"><path d="M2227.5,509.653h2.5v14.812h-2.5Z" transform="translate(-2227.503 -509.653)" fill="#fff"/></g><g transform="translate(98.973 4.032)"><path d="M2304.594,566.038a4.359,4.359,0,0,1,1.248,3.4v6.248h-2.356v-1.3a2.9,2.9,0,0,1-1.308,1.068,5.111,5.111,0,0,1-2.046.369,5.016,5.016,0,0,1-2.1-.409,3.232,3.232,0,0,1-1.387-1.138,2.883,2.883,0,0,1-.489-1.647,2.823,2.823,0,0,1,1.068-2.306,5.3,5.3,0,0,1,3.364-.868h2.754v-.16a2.185,2.185,0,0,0-.668-1.717,2.9,2.9,0,0,0-1.987-.6,5.74,5.74,0,0,0-1.767.279,4.343,4.343,0,0,0-1.467.778l-.978-1.816a6.063,6.063,0,0,1,2.017-.978,8.976,8.976,0,0,1,2.494-.339A5.2,5.2,0,0,1,2304.594,566.038Zm-2.276,7.546a2.33,2.33,0,0,0,1.029-1.228v-1.238h-2.575q-2.156,0-2.156,1.417a1.272,1.272,0,0,0,.539,1.078,2.469,2.469,0,0,0,1.5.4A3.218,3.218,0,0,0,2302.318,573.584Z" transform="translate(-2296.16 -564.91)" fill="#fff"/></g><g transform="translate(109.673 4.152)"><path d="M2454.739,566.551l-4.991,11.518a5.358,5.358,0,0,1-1.7,2.445,4.066,4.066,0,0,1-2.416.709,4.96,4.96,0,0,1-1.576-.259,3.493,3.493,0,0,1-1.278-.719l1-1.837a2.709,2.709,0,0,0,.848.539,2.6,2.6,0,0,0,.989.2,1.7,1.7,0,0,0,1.087-.339,3.006,3.006,0,0,0,.789-1.138l.179-.419-4.651-10.7h2.6l3.354,7.885,3.373-7.885Z" transform="translate(-2442.781 -566.551)" fill="#fff"/></g></g><g transform="translate(28.07 9.008)"><g transform="translate(20.278 13.209)"><path d="M718.926,479.81l-6.708-3.871-5.517,5.333,5.042,4.874L718.926,482a1.265,1.265,0,0,0,0-2.19Z" transform="translate(-706.701 -475.939)" fill="#fff"/></g><g transform="translate(1.097)"><path d="M467.424,307.489l-7.382-4.261-16.177-8.29L462.137,312.6Z" transform="translate(-443.865 -294.937)" fill="#fff"/></g><g transform="translate(1.365 19.421)"><path d="M447.543,578.469l15.937-8.779,6.879-3.971-4.812-4.652Z" transform="translate(-447.543 -561.066)" fill="#fff"/></g><g transform="translate(0 0.715)"><path d="M428.853,304.73l-.017,35.671,18.459-17.844Z" transform="translate(-428.835 -304.73)" fill="#fff"/></g></g></g></g></g><text transform="translate(65.182 17.208)" fill="#fff" font-size="14" font-family="Montserrat-Regular, Montserrat" letter-spacing="0.046em"><tspan x="0" y="0">Baixe o app</tspan></text></g></svg>