<svg xmlns="http://www.w3.org/2000/svg" width="17.819" height="17.819" viewBox="0 0 17.819 17.819"><g transform="translate(-1212 -79)"><path d="M3.341,0H14.478a3.218,3.218,0,0,1,2.361.98,3.218,3.218,0,0,1,.98,2.361V14.478a3.347,3.347,0,0,1-3.341,3.341H12.092v-6.9h2.514l.348-2.691H12.3V6.508a1.487,1.487,0,0,1,.273-.974,1.353,1.353,0,0,1,1.061-.325L15.046,5.2V2.8a15.551,15.551,0,0,0-2.065-.1,3.446,3.446,0,0,0-2.523.928,3.508,3.508,0,0,0-.945,2.622V8.225H7.193v2.691H9.546v6.9h-6.2a3.218,3.218,0,0,1-2.361-.98A3.218,3.218,0,0,1,0,14.478V3.341A3.218,3.218,0,0,1,.98.98,3.218,3.218,0,0,1,3.341,0Z" transform="translate(1212 79)" fill="#fff"/></g></svg>