<svg xmlns="http://www.w3.org/2000/svg" width="19.467" height="19.467" viewBox="0 0 19.467 19.467"><g transform="translate(-1212 -116)"><path d="M12.027,12.027a3.126,3.126,0,0,0,.951-2.294A3.245,3.245,0,0,0,9.734,6.489,3.245,3.245,0,0,0,6.489,9.734a3.245,3.245,0,0,0,3.245,3.245A3.126,3.126,0,0,0,12.027,12.027ZM13.27,6.2a4.815,4.815,0,0,1,1.457,3.536,4.976,4.976,0,0,1-4.993,4.993A4.976,4.976,0,0,1,4.74,9.734,4.976,4.976,0,0,1,9.734,4.74,4.815,4.815,0,0,1,13.27,6.2Zm2.484-2.484a1.163,1.163,0,0,1,0,1.648,1.166,1.166,0,0,1-1.99-.824,1.165,1.165,0,0,1,1.99-.824ZM10.7,1.743l-.97.006-.97-.006q-.881-.006-1.337,0T6.2,1.781A10.044,10.044,0,0,0,4.9,1.907a5.082,5.082,0,0,0-.906.234,3.318,3.318,0,0,0-1.85,1.85,5.082,5.082,0,0,0-.234.906A10.044,10.044,0,0,0,1.781,6.2q-.032.767-.038,1.223t0,1.337q.006.881.006.97t-.006.97q-.006.881,0,1.337t.038,1.223a10.044,10.044,0,0,0,.127,1.305,5.082,5.082,0,0,0,.234.906,3.318,3.318,0,0,0,1.85,1.85,5.081,5.081,0,0,0,.906.234,10.044,10.044,0,0,0,1.305.127q.767.032,1.223.038t1.337,0l.97-.006.97.006q.881.006,1.337,0t1.223-.038a10.044,10.044,0,0,0,1.305-.127,5.081,5.081,0,0,0,.906-.234,3.318,3.318,0,0,0,1.85-1.85,5.081,5.081,0,0,0,.234-.906,10.044,10.044,0,0,0,.127-1.305q.032-.767.038-1.223t0-1.337q-.006-.881-.006-.97t.006-.97q.006-.881,0-1.337T17.686,6.2A10.044,10.044,0,0,0,17.56,4.9a5.081,5.081,0,0,0-.234-.906,3.318,3.318,0,0,0-1.85-1.85,5.082,5.082,0,0,0-.906-.234,10.044,10.044,0,0,0-1.305-.127q-.767-.032-1.223-.038T10.7,1.743Zm8.7,3.973q.063,1.115.063,4.018T19.4,13.751a5.945,5.945,0,0,1-1.572,4.081A5.945,5.945,0,0,1,13.751,19.4q-1.115.063-4.018.063T5.716,19.4a5.945,5.945,0,0,1-4.081-1.572A5.945,5.945,0,0,1,.063,13.751Q0,12.636,0,9.734T.063,5.716A5.945,5.945,0,0,1,1.635,1.635,5.945,5.945,0,0,1,5.716.063Q6.831,0,9.734,0t4.018.063a5.945,5.945,0,0,1,4.081,1.572A5.945,5.945,0,0,1,19.4,5.716Z" transform="translate(1212 116)" fill="#fff"/></g></svg>