<svg xmlns="http://www.w3.org/2000/svg" width="17.015" height="16.335" viewBox="0 0 17.015 16.335"><g transform="translate(-1215 -189)"><path d="M.21,5.308H4.084V16.335H.21ZM3.534.54A1.86,1.86,0,0,1,4.1,1.9,1.765,1.765,0,0,1,3.539,3.26a2.082,2.082,0,0,1-1.5.545H2.016A1.994,1.994,0,0,1,.554,3.26,1.828,1.828,0,0,1,0,1.9,1.8,1.8,0,0,1,.571.54,2.079,2.079,0,0,1,2.06,0,2.021,2.021,0,0,1,3.534.54Zm12.33,5.775a5.314,5.314,0,0,1,1.152,3.7v6.32H13.371v-5.9a3.23,3.23,0,0,0-.449-1.83,1.573,1.573,0,0,0-1.4-.662,1.789,1.789,0,0,0-1.169.384,2.366,2.366,0,0,0-.7.951,2.7,2.7,0,0,0-.122.9v6.153H5.882q.022-4.44.022-7.2T5.893,5.842l-.011-.534H9.527v1.6H9.5a4.842,4.842,0,0,1,.454-.623,4.731,4.731,0,0,1,.626-.579,2.873,2.873,0,0,1,.964-.484,4.373,4.373,0,0,1,1.268-.172A3.926,3.926,0,0,1,15.863,6.315Z" transform="translate(1215 189)" fill="#fff"/></g></svg>