<svg id="Vector_Smart_Object" data-name="Vector Smart Object" xmlns="http://www.w3.org/2000/svg" xmlns:xlink="http://www.w3.org/1999/xlink" width="198" height="58" viewBox="0 0 198 58">
  <defs>
    <clipPath id="clip-path">
      <rect id="Ret창ngulo_47" data-name="Ret창ngulo 47" width="198" height="58" fill="none"/>
    </clipPath>
  </defs>
  <g id="Grupo_48" data-name="Grupo 48">
    <g id="Grupo_47" data-name="Grupo 47" clip-path="url(#clip-path)">
      <path id="Caminho_146" data-name="Caminho 146" d="M78.3,40.263v4.866H75.969V31.079h2.207v1.29a5.107,5.107,0,0,1,7.374.32,5.816,5.816,0,0,1-.076,7.189c-1.759,2-4.489,2.172-7.178.386m-.019-4.037a3.03,3.03,0,1,0,6.046-.021,3.029,3.029,0,1,0-6.046.021" fill="#fff"/>
      <path id="Caminho_147" data-name="Caminho 147" d="M89.057,31.074h2.206V32.36a4.688,4.688,0,0,1,4.118-1.378A4.8,4.8,0,0,1,99,33.179a5.833,5.833,0,0,1-.777,7.062,5.147,5.147,0,0,1-6.825-.033v4.926H89.057Zm2.316,5.142a3.027,3.027,0,1,0,6.038,0,3.026,3.026,0,1,0-6.038,0" fill="#fff"/>
      <path id="Caminho_148" data-name="Caminho 148" d="M74.4,41.4c-.792,0-1.519.02-2.243-.016a.647.647,0,0,1-.443-.338c-.361-.782-.693-1.579-1.016-2.379a.541.541,0,0,0-.582-.414c-1.97.018-3.941,0-5.911.024a.677.677,0,0,0-.5.332c-.363.781-.692,1.58-1,2.384a.562.562,0,0,1-.635.416C61.4,41.385,60.734,41.4,60,41.4c.088-.23.143-.4.214-.555q2.772-6.258,5.539-12.519a.67.67,0,0,1,.751-.5c.512.037,1.031-.018,1.543.025a.712.712,0,0,1,.517.315q2.9,6.464,5.77,12.947a2.3,2.3,0,0,1,.074.282m-4.712-5.135-2.511-5.9-2.486,5.9Z" fill="#fff"/>
      <path id="Caminho_149" data-name="Caminho 149" d="M115.88,30.633a24.193,24.193,0,0,0-3.128-.827,6.644,6.644,0,0,0-2.353.229,1.494,1.494,0,0,0-1.163,1.5,1.4,1.4,0,0,0,1.063,1.4c.832.3,1.7.511,2.548.768a21.5,21.5,0,0,1,2.08.662,3.212,3.212,0,0,1,2.22,2.9,3.579,3.579,0,0,1-1.683,3.394,5.854,5.854,0,0,1-2.868.9,9.32,9.32,0,0,1-5.681-1.251.52.52,0,0,1-.231-.821c.245-.453.428-.94.657-1.454a6.742,6.742,0,0,0,3.2,1.339,12.8,12.8,0,0,0,2.641-.05,2.124,2.124,0,0,0,1.07-.548,1.314,1.314,0,0,0-.1-2.1,4.15,4.15,0,0,0-1.193-.57c-.984-.3-1.986-.548-2.977-.829a7.517,7.517,0,0,1-1.005-.353,3.265,3.265,0,0,1-2.188-2.81,3.624,3.624,0,0,1,1.476-3.395,5.281,5.281,0,0,1,2.614-.992,9.039,9.039,0,0,1,5.287.843c.364.185.441.379.257.753-.227.461-.4.951-.541,1.308" fill="#fff"/>
      <path id="Caminho_150" data-name="Caminho 150" d="M148.855,36.98c.347,2.52,3.942,3.387,6.063,1.412l1.317,1.534A10.239,10.239,0,0,1,154.644,41a6.262,6.262,0,0,1-5.608-.188,5.152,5.152,0,0,1-2.522-5.6,5.017,5.017,0,0,1,4.132-4.183,5.1,5.1,0,0,1,6.135,5.954Zm0-1.637h5.69a2.874,2.874,0,0,0-5.69,0" fill="#fff"/>
      <path id="Caminho_151" data-name="Caminho 151" d="M131.574,41.543a5.017,5.017,0,0,1-4.7-2.841,5.3,5.3,0,0,1,.384-5.59,5.726,5.726,0,0,1,7.837-1.134,5.429,5.429,0,0,1,1.141,7.345,5.332,5.332,0,0,1-4.659,2.22m3.18-5.292a3.033,3.033,0,1,0-6.053-.071,3.034,3.034,0,1,0,6.053.071" fill="#fff"/>
      <path id="Caminho_152" data-name="Caminho 152" d="M119.716,33.084h-1.639V31.13h1.639V28.8H122.1v2.32h2.693v1.946h-2.694v.619q0,2.028,0,4.055c0,1.622,1.015,2.257,2.48,1.557.077-.037.153-.078.251-.128a2.336,2.336,0,0,1,.134.247c.183.466.361.933.559,1.45a4.226,4.226,0,0,1-3.99.363,2.769,2.769,0,0,1-1.785-2.706c-.054-1.6-.023-3.207-.028-4.811,0-.192,0-.385,0-.622" fill="#fff"/>
      <path id="Caminho_153" data-name="Caminho 153" d="M139.469,41.364V31.09H141.7v1.43a4.268,4.268,0,0,1,3.588-1.582v2.251c-.215,0-.438-.005-.66,0a2.606,2.606,0,0,0-2.732,2.53c-.1,1.342-.056,2.7-.071,4.046-.006.52,0,1.039,0,1.6Z" fill="#fff"/>
      <path id="Caminho_154" data-name="Caminho 154" d="M24.4,30.547a10.9,10.9,0,0,1,1.813-6.577,7.356,7.356,0,0,1,6.2-3.319,6.691,6.691,0,0,1,2.771.634,5.065,5.065,0,0,0,4.629-.019,7.463,7.463,0,0,1,7.871.772,11.843,11.843,0,0,1,1.475,1.47c.306.316.253.544-.12.81A6.71,6.71,0,0,0,49.7,35.88c.444.226.539.434.372.912a19.366,19.366,0,0,1-3.7,6.332c-1.646,1.9-3.371,2.307-5.638,1.255a6.235,6.235,0,0,0-5.691,0c-.175.087-.36.152-.542.225a3.812,3.812,0,0,1-4.538-.95,23.352,23.352,0,0,1-2.357-2.987A19.266,19.266,0,0,1,24.4,30.547" fill="#fff"/>
      <path id="Caminho_155" data-name="Caminho 155" d="M43.776,13.88a7.008,7.008,0,0,1-5.729,6.813c-.987.124-1.11.009-1.081-1.011a7.377,7.377,0,0,1,6.055-6.726c.72-.087.767-.03.755.924" fill="#fff"/>
      <path id="Caminho_156" data-name="Caminho 156" d="M63.65,21.895V13.377h3.62a3.6,3.6,0,0,1,2.176.572,1.9,1.9,0,0,1,.773,1.618,2.054,2.054,0,0,1-.318,1.168,1.988,1.988,0,0,1-.863.718,2.892,2.892,0,0,1-1.193.243l.2-.292a3.5,3.5,0,0,1,1.384.249,1.992,1.992,0,0,1,.9.742,2.181,2.181,0,0,1,.324,1.223,1.986,1.986,0,0,1-.785,1.679,3.892,3.892,0,0,1-2.367.6Zm.887-.742H67.5a3.1,3.1,0,0,0,1.69-.383,1.353,1.353,0,0,0,.587-1.223,1.341,1.341,0,0,0-.587-1.211,3.1,3.1,0,0,0-1.69-.383H64.441V17.21H67.21a2.7,2.7,0,0,0,1.564-.389,1.318,1.318,0,0,0,.557-1.156,1.316,1.316,0,0,0-.557-1.162,2.737,2.737,0,0,0-1.564-.383H64.537Z" fill="#fff"/>
      <path id="Caminho_157" data-name="Caminho 157" d="M74.282,21.956a2.945,2.945,0,0,1-1.229-.237,1.832,1.832,0,0,1-.8-.657,1.721,1.721,0,0,1-.276-.967,1.79,1.79,0,0,1,.234-.906,1.654,1.654,0,0,1,.767-.657,3.427,3.427,0,0,1,1.432-.249h2.169v.645H74.438a1.867,1.867,0,0,0-1.265.329,1.068,1.068,0,0,0-.354.815,1.056,1.056,0,0,0,.42.876,1.863,1.863,0,0,0,1.175.329,2.247,2.247,0,0,0,1.241-.335,1.917,1.917,0,0,0,.761-.967l.192.6a2.022,2.022,0,0,1-.833,1.01,2.732,2.732,0,0,1-1.492.377m2.169-.061V20.483l-.036-.231V17.892a1.671,1.671,0,0,0-.45-1.253,1.843,1.843,0,0,0-1.336-.438,3.282,3.282,0,0,0-1.163.207,2.957,2.957,0,0,0-.935.547l-.383-.645a3.388,3.388,0,0,1,1.151-.639,4.419,4.419,0,0,1,1.414-.225,2.681,2.681,0,0,1,1.888.615,2.423,2.423,0,0,1,.665,1.868V21.9Z" fill="#fff"/>
      <path id="Caminho_158" data-name="Caminho 158" d="M80.011,14.1a.618.618,0,0,1-.623-.62.582.582,0,0,1,.18-.432.609.609,0,0,1,.443-.176.621.621,0,0,1,.444.17.562.562,0,0,1,.18.426.628.628,0,0,1-.174.45.593.593,0,0,1-.45.182m-.431,1.412h.851V21.9H79.58Z" fill="#fff"/>
      <path id="Caminho_159" data-name="Caminho 159" d="M81.845,21.895l2.661-3.5-.012.426-2.529-3.31h.959L85,18.245l-.36-.012,2.074-2.726h.935l-2.553,3.346.012-.462,2.685,3.5h-.971l-2.193-2.92.336.049L82.8,21.895Z" fill="#fff"/>
      <path id="Caminho_160" data-name="Caminho 160" d="M91.65,21.956a3.449,3.449,0,0,1-1.726-.42,3.024,3.024,0,0,1-1.163-1.156,3.342,3.342,0,0,1-.42-1.685,3.426,3.426,0,0,1,.4-1.679,2.99,2.99,0,0,1,2.679-1.57A3.038,3.038,0,0,1,93,15.854,2.885,2.885,0,0,1,94.083,17a3.531,3.531,0,0,1,.4,1.7q0,.061-.006.128t-.006.14H88.989v-.645h5.022l-.336.256a2.55,2.55,0,0,0-.294-1.235,2.183,2.183,0,0,0-.8-.846,2.205,2.205,0,0,0-1.163-.3,2.245,2.245,0,0,0-1.163.3,2.1,2.1,0,0,0-.8.852,2.654,2.654,0,0,0-.288,1.253v.134a2.533,2.533,0,0,0,.318,1.284,2.232,2.232,0,0,0,.887.864,2.673,2.673,0,0,0,1.3.31,2.764,2.764,0,0,0,1.073-.207,2.23,2.23,0,0,0,.857-.633l.479.56a2.7,2.7,0,0,1-1.049.779,3.5,3.5,0,0,1-1.384.268" fill="#fff"/>
      <path id="Caminho_161" data-name="Caminho 161" d="M101.922,21.956a3.205,3.205,0,0,1-1.636-.42,3.061,3.061,0,0,1-1.145-1.156,3.606,3.606,0,0,1,0-3.377,3.044,3.044,0,0,1,1.139-1.144,3.235,3.235,0,0,1,1.642-.414,3.293,3.293,0,0,1,1.66.414A2.99,2.99,0,0,1,104.72,17a3.653,3.653,0,0,1,0,3.377,3.007,3.007,0,0,1-1.145,1.156,3.262,3.262,0,0,1-1.654.42m0-.767a2.343,2.343,0,0,0,1.211-.31,2.211,2.211,0,0,0,.833-.876,2.964,2.964,0,0,0,0-2.622,2.222,2.222,0,0,0-.833-.87,2.47,2.47,0,0,0-2.4,0,2.264,2.264,0,0,0-.839.87A2.914,2.914,0,0,0,99.9,20a2.252,2.252,0,0,0,.839.876,2.3,2.3,0,0,0,1.187.31" fill="#fff"/>
      <path id="Caminho_162" data-name="Caminho 162" d="M111.786,21.956a2.945,2.945,0,0,1-1.229-.237,1.832,1.832,0,0,1-.8-.657,1.721,1.721,0,0,1-.276-.967,1.79,1.79,0,0,1,.234-.906,1.654,1.654,0,0,1,.767-.657,3.427,3.427,0,0,1,1.432-.249h2.169v.645h-2.145a1.867,1.867,0,0,0-1.265.329,1.068,1.068,0,0,0-.354.815,1.056,1.056,0,0,0,.42.876,1.863,1.863,0,0,0,1.175.329,2.247,2.247,0,0,0,1.241-.335,1.917,1.917,0,0,0,.761-.967l.192.6a2.022,2.022,0,0,1-.833,1.01,2.732,2.732,0,0,1-1.492.377m2.169-.061V20.483l-.036-.231V17.892a1.671,1.671,0,0,0-.45-1.253,1.843,1.843,0,0,0-1.336-.438,3.282,3.282,0,0,0-1.163.207,2.957,2.957,0,0,0-.935.547l-.383-.645a3.388,3.388,0,0,1,1.151-.639,4.419,4.419,0,0,1,1.414-.225,2.681,2.681,0,0,1,1.888.615,2.423,2.423,0,0,1,.665,1.868V21.9Z" fill="#fff"/>
      <path id="Caminho_163" data-name="Caminho 163" d="M117.084,24.256V15.507h.815v1.923l-.084,1.278.12,1.29v4.259Zm3.248-2.3a2.88,2.88,0,0,1-1.474-.383,2.755,2.755,0,0,1-1.049-1.107,3.694,3.694,0,0,1-.389-1.771,3.741,3.741,0,0,1,.383-1.77,2.675,2.675,0,0,1,1.043-1.1,2.939,2.939,0,0,1,1.486-.377,3.191,3.191,0,0,1,1.612.408A2.918,2.918,0,0,1,123.065,17a3.751,3.751,0,0,1,0,3.4,2.972,2.972,0,0,1-1.121,1.144,3.154,3.154,0,0,1-1.612.414m-.06-.767a2.32,2.32,0,0,0,1.2-.31A2.254,2.254,0,0,0,122.31,20a2.668,2.668,0,0,0,.312-1.308,2.634,2.634,0,0,0-.312-1.3,2.313,2.313,0,0,0-.839-.876,2.285,2.285,0,0,0-1.2-.316,2.315,2.315,0,0,0-1.2.316,2.254,2.254,0,0,0-.839.876,2.675,2.675,0,0,0-.306,1.3A2.71,2.71,0,0,0,118.229,20a2.2,2.2,0,0,0,.839.876,2.351,2.351,0,0,0,1.2.31" fill="#fff"/>
      <path id="Caminho_164" data-name="Caminho 164" d="M125.211,24.256V15.507h.815v1.923l-.084,1.278.12,1.29v4.259Zm3.248-2.3a2.88,2.88,0,0,1-1.474-.383,2.755,2.755,0,0,1-1.049-1.107,3.694,3.694,0,0,1-.389-1.771,3.741,3.741,0,0,1,.383-1.77,2.675,2.675,0,0,1,1.043-1.1,2.939,2.939,0,0,1,1.486-.377,3.191,3.191,0,0,1,1.612.408A2.918,2.918,0,0,1,131.192,17a3.751,3.751,0,0,1,0,3.4,2.972,2.972,0,0,1-1.121,1.144,3.154,3.154,0,0,1-1.612.414m-.06-.767a2.32,2.32,0,0,0,1.2-.31,2.254,2.254,0,0,0,.839-.876,2.668,2.668,0,0,0,.312-1.308,2.634,2.634,0,0,0-.312-1.3,2.313,2.313,0,0,0-.839-.876,2.285,2.285,0,0,0-1.2-.316,2.315,2.315,0,0,0-1.2.316,2.254,2.254,0,0,0-.839.876,2.675,2.675,0,0,0-.306,1.3A2.71,2.71,0,0,0,126.355,20a2.2,2.2,0,0,0,.839.876,2.351,2.351,0,0,0,1.2.31" fill="#fff"/>
      <rect id="Ret창ngulo_46" data-name="Ret창ngulo 46" width="196.935" height="56.918" rx="28.246" transform="translate(0.533 0.541)" fill="none" stroke="#fff" stroke-miterlimit="10" stroke-width="1.074"/>
    </g>
  </g>
</svg>
