<svg xmlns="http://www.w3.org/2000/svg" width="24.003" height="24.003" viewBox="0 0 24.003 24.003"><g transform="translate(-80 -313)"><path d="M14.58,13.963q.609-.752.813-.752a7.151,7.151,0,0,1,1.524.682,6.774,6.774,0,0,1,1.4.822.656.656,0,0,1,.031.233,3.246,3.246,0,0,1-.266,1.178,2.088,2.088,0,0,1-1.11,1.016,3.724,3.724,0,0,1-1.594.411,8.487,8.487,0,0,1-2.969-.961,8.919,8.919,0,0,1-2.657-1.83,20.46,20.46,0,0,1-2.313-2.869,5.4,5.4,0,0,1-1.11-3.008V8.761a3.416,3.416,0,0,1,1.156-2.45A1.187,1.187,0,0,1,8.3,5.97a2.506,2.506,0,0,1,.281.023,2.551,2.551,0,0,0,.3.023.645.645,0,0,1,.414.1,1.12,1.12,0,0,1,.242.426q.125.31.516,1.365a9.013,9.013,0,0,1,.391,1.163,1.57,1.57,0,0,1-.539.892q-.539.566-.539.721a.441.441,0,0,0,.078.233,6.985,6.985,0,0,0,1.594,2.124,9.969,9.969,0,0,0,2.36,1.566.7.7,0,0,0,.344.109Q13.97,14.715,14.58,13.963ZM6.829,19.816a9.781,9.781,0,0,0,9.2.837,9.9,9.9,0,0,0,3.133-2.078,9.815,9.815,0,0,0,2.094-3.109,9.513,9.513,0,0,0,0-7.551,9.815,9.815,0,0,0-2.094-3.109,9.9,9.9,0,0,0-3.133-2.078,9.726,9.726,0,0,0-7.61,0A9.9,9.9,0,0,0,5.282,4.807,9.815,9.815,0,0,0,3.188,7.916,9.578,9.578,0,0,0,4.282,17.4L3.047,21.01ZM7.649.93a11.694,11.694,0,0,1,9.142,0,11.906,11.906,0,0,1,3.758,2.5,11.8,11.8,0,0,1,2.516,3.729,11.438,11.438,0,0,1,0,9.071,11.8,11.8,0,0,1-2.516,3.729,11.906,11.906,0,0,1-3.758,2.5,11.526,11.526,0,0,1-4.571.93,11.673,11.673,0,0,1-5.7-1.458L0,24l2.125-6.28a11.544,11.544,0,0,1-.75-10.567A11.8,11.8,0,0,1,3.891,3.427,11.906,11.906,0,0,1,7.649.93Z" transform="translate(80 313)" fill="#fff"/></g></svg>