<svg xmlns="http://www.w3.org/2000/svg" width="24.003" height="18.95" viewBox="0 0 24.003 18.95"><g transform="translate(-80 -182)"><path d="M22.161,17.1a.415.415,0,0,0,.127-.3V6.46a7.866,7.866,0,0,1-.924.888q-3.59,2.772-5.706,4.549-.683.579-1.112.9a6.18,6.18,0,0,1-1.159.653,3.347,3.347,0,0,1-1.373.33h-.027a3.347,3.347,0,0,1-1.373-.33A6.18,6.18,0,0,1,9.457,12.8q-.429-.323-1.112-.9Q6.228,10.121,2.639,7.348a7.866,7.866,0,0,1-.924-.888V16.8a.436.436,0,0,0,.429.431H21.86A.411.411,0,0,0,22.161,17.1Zm-.5-12.678a3.372,3.372,0,0,0,.623-1.77v-.33l-.007-.175q-.007-.175-.04-.168t-.074-.121q-.04-.128-.121-.1a.231.231,0,0,1-.188-.034H2.143a.436.436,0,0,0-.429.431A4.718,4.718,0,0,0,3.683,5.976q2.585,2.046,5.371,4.266l.469.4q.388.33.616.5t.6.424a3.562,3.562,0,0,0,.676.37,1.58,1.58,0,0,0,.576.121h.027a1.58,1.58,0,0,0,.576-.121,3.562,3.562,0,0,0,.676-.37q.368-.249.6-.424t.616-.5l.469-.4q2.786-2.221,5.371-4.266A6.317,6.317,0,0,0,21.666,4.421ZM23.373.633A2.079,2.079,0,0,1,24,2.153V16.8A2.155,2.155,0,0,1,21.86,18.95H2.143A2.059,2.059,0,0,1,.63,18.317,2.079,2.079,0,0,1,0,16.8V2.153A2.079,2.079,0,0,1,.63.633,2.059,2.059,0,0,1,2.143,0H21.86A2.059,2.059,0,0,1,23.373.633Z" transform="translate(80 182)" fill="#fff"/></g></svg>