<svg xmlns="http://www.w3.org/2000/svg" width="24.003" height="21.464" viewBox="0 0 24.003 21.464"><g transform="translate(-80 -222.005)"><path d="M22.972.071a.7.7,0,0,1,.7.072A.748.748,0,0,1,24,.777V17.632a.754.754,0,0,1-.129.431.724.724,0,0,1-.34.275l-7.5,3.065a.634.634,0,0,1-.563,0l-7.22-2.945L1.031,21.4a.612.612,0,0,1-.281.06A.754.754,0,0,1,0,20.7V3.842a.754.754,0,0,1,.129-.431.724.724,0,0,1,.34-.275L7.97.071a.634.634,0,0,1,.563,0l7.22,2.945ZM15.16,4.512,8.843,1.759v15.2l6.317,2.753ZM7.876,1.759,1.5,4.356v15.2l6.376-2.6Zm8.251,17.957,6.376-2.6V1.914l-6.376,2.6Z" transform="translate(80 222)" fill="#fff"/></g></svg>