<?xml version="1.0" encoding="utf-8"?>
<!-- Generator: Adobe Illustrator 24.0.2, SVG Export Plug-In . SVG Version: 6.00 Build 0)  -->
<svg version="1.1" id="Camada_1" xmlns="http://www.w3.org/2000/svg" xmlns:xlink="http://www.w3.org/1999/xlink" x="0px" y="0px"
	 viewBox="0 0 1920 1080" style="enable-background:new 0 0 1920 1080;" xml:space="preserve">
<style type="text/css">
	.st0{fill:#FFFFFF;}
	.st1{fill:#FAFCFD;}
</style>
<g>
	<g>
		<path class="st0" d="M142.35,769.06c0,13.24-10.84,24.08-24.09,24.08H68.94c-13.25,0-24.09-10.84-24.09-24.08v-77.87
			c0-13.24,10.84-24.08,24.09-24.08h49.32c13.25,0,24.09,10.84,24.09,24.08V769.06z"/>
		<path class="st0" d="M274.66,769.06c0,13.24-10.84,24.08-24.09,24.08h-49.32c-13.25,0-24.09-10.84-24.09-24.08V561.21
			c0-13.24,10.84-24.08,24.09-24.08h49.32c13.25,0,24.09,10.84,24.09,24.08V769.06z"/>
		<path class="st0" d="M406.96,769.06c0,13.24-10.84,24.08-24.09,24.08h-49.32c-13.25,0-24.09-10.84-24.09-24.08V427.84
			c0-13.26,10.84-24.1,24.09-24.1h49.32c13.25,0,24.09,10.84,24.09,24.1V769.06z"/>
		<path class="st0" d="M571.24,769.06c0,13.24-10.84,24.08-24.09,24.08h-81.29c-13.25,0-24.09-10.84-24.09-24.08v-476.1
			c0-13.26,10.84-24.1,24.09-24.1h81.29c13.25,0,24.09,10.84,24.09,24.1V769.06z"/>
		<path class="st0" d="M804.16,369.04H630.32c-13.25,0-24.09-10.84-24.09-24.08v-52c0-13.26,10.84-24.1,24.09-24.1h192.41
			c79.49,0,144.52,65.04,144.52,144.52v7.3c0,56.36-32.79,105.34-80.16,129.12l82.6,220.78c4.65,12.4-2.39,22.55-15.63,22.55H876.9
			c-13.25,0-27.56-10.27-31.8-22.82l-69.27-205.11h-25.08h-31.18v203.85c0,13.24-10.84,24.08-24.09,24.08h-65.17
			c-13.25,0-24.09-10.84-24.09-24.08V565.21v-53.19v-41.92h197.93c26.5,0,48.17-21.68,48.17-48.18v-4.7
			C852.33,390.71,830.65,369.04,804.16,369.04z"/>
		<g>
			<path class="st0" d="M1032.62,577.01h-74.97v-13.62h166.28v13.62h-74.95v216.04h-16.36V577.01z"/>
			<path class="st0" d="M1142.31,566.46c14.31-3.07,33.74-4.78,49.76-4.78c29.97,0,49.06,6.47,62.01,19.09
				c9.89,9.54,16.02,24.88,16.02,40.89c0,31-18.39,50.77-44.98,59.96v0.68c18.41,5.79,29.99,23.17,35.43,48.73
				c7.85,35.78,12.28,52.83,17.05,62.02h-16.7c-3.75-6.82-8.51-26.92-14.65-55.88c-7.15-33.06-21.46-48.05-51.8-49.41h-35.77v105.29
				h-16.36V566.46z M1158.67,674.46h36.45c35.45,0,58.62-19.77,58.62-50.09c0-35.1-25.91-49.41-62.02-49.41
				c-15.67,0-27.25,1.71-33.04,3.07V674.46z"/>
			<path class="st0" d="M1336.84,712.64l-28.28,80.41h-16.7l83.15-229.66h15.67l82.8,229.66h-16.7l-28.96-80.41H1336.84z
				 M1422.71,698.99l-27.95-76.66c-5.44-16.01-8.51-27.6-11.92-40.54h-0.68c-3.42,13.28-7.15,25.21-11.93,39.86l-28.28,77.34
				H1422.71z"/>
			<path class="st0" d="M1503.42,566.79c17.72-3.07,37.14-5.11,58.95-5.11c41.91,0,73.61,11.25,92.67,31.35
				c18.41,19.09,28.63,44.98,28.63,79.73c0,33.74-9.19,64.06-29.99,86.9c-20.1,22.14-54.85,35.1-99.15,35.1
				c-17.73,0-34.42-0.35-51.12-1.71V566.79z M1519.78,779.42c9.2,1.36,22.49,1.69,37.13,1.69c73.61,0,110.07-41.23,110.07-107.66
				c0.68-58.27-31.68-98.14-105.64-98.14c-17.71,0-31.68,1.69-41.56,3.74V779.42z"/>
			<path class="st1" d="M1826.73,678.9h-91.65v100.52h102.55v13.63h-118.91V563.38h113.47v13.62h-97.11v88.26h91.65V678.9z"/>
		</g>
	</g>
	<g>
		<path class="st0" d="M1871.36,534.53c11.24,0,20.33,9.1,20.33,20.33c0,11.23-9.09,20.32-20.33,20.32
			c-11.24,0-20.33-9.09-20.33-20.32C1851.03,543.63,1860.12,534.53,1871.36,534.53z M1888.05,554.86c0-9.43-7.45-17.05-16.7-17.05
			c-9.26,0-16.71,7.63-16.71,17.05c0,9.42,7.45,17.05,16.71,17.05C1880.6,571.91,1888.05,564.28,1888.05,554.86z M1863.24,543.07
			h9.21c5.26,0,8.1,2.21,8.1,6.97c0,4.22-2.72,6.18-6.41,6.58l6.8,10.23h-3.62l-6.57-9.97h-3.9v9.97h-3.62V543.07z M1870.76,553.59
			c3.27,0,6.19-0.16,6.19-3.72c0-3.13-2.64-3.51-5.16-3.51h-4.93v7.23H1870.76z"/>
	</g>
</g>
</svg>
