<svg width="459" height="293" viewBox="0 0 459 293" fill="none" xmlns="http://www.w3.org/2000/svg">
<g clip-path="url(#clip0)">
<path d="M172.322 10.2656C186.569 21.09 194.05 39.6346 189.912 58.2589C186.012 76.0076 172.64 89.2197 156.324 93.7563" stroke="#3596A9" stroke-width="1.12804" stroke-miterlimit="10"/>
<path d="M142.952 95.5081C139.769 95.4285 136.585 95.1102 133.401 94.3938C107.773 88.7429 91.6163 63.433 97.2673 37.8048C102.918 12.1766 128.228 -3.98035 153.856 1.67059C159.587 2.94404 164.76 5.17259 169.456 8.19703" stroke="#3596A9" stroke-width="1.12804" stroke-miterlimit="10"/>
<path opacity="0.31" d="M143.588 48.0722L143.747 0.636055C121.86 0.556464 102.121 15.6787 97.2662 37.8845C94.4009 51.017 97.2662 64.1495 104.191 74.4963L143.588 48.0722Z" stroke="#3596A9" stroke-width="0.795908" stroke-miterlimit="10"/>
<path d="M161.338 54.4385L157.836 53.165L149.16 61.8404" stroke="#D3B161" stroke-width="0.795908" stroke-miterlimit="10"/>
<path d="M149.16 61.8414L157.836 53.166L154.334 51.8926" stroke="#D3B161" stroke-width="0.795908" stroke-miterlimit="10"/>
<path d="M168.339 56.9068L164.837 55.7129L151.863 68.6862" stroke="#D3B161" stroke-width="0.795908" stroke-miterlimit="10"/>
<path d="M151.863 68.6852L164.837 55.7119L161.335 54.4385" stroke="#D3B161" stroke-width="0.795908" stroke-miterlimit="10"/>
<path d="M146.375 55.0753L150.832 50.6182L147.33 49.3447" stroke="#D3B161" stroke-width="0.795908" stroke-miterlimit="10"/>
<path d="M154.574 75.4509L171.845 58.1797L168.343 56.9062" stroke="#D3B161" stroke-width="0.795908" stroke-miterlimit="10"/>
<path d="M154.334 51.8906L150.832 50.6172L146.375 55.0743" stroke="#D3B161" stroke-width="0.795908" stroke-miterlimit="10"/>
<path d="M179.005 79.6689L175.344 83.3301C176.617 82.2158 177.811 80.9424 179.005 79.6689Z" stroke="#D3B161" stroke-width="0.795908" stroke-miterlimit="10"/>
<path d="M175.347 59.4522L171.845 58.1787L154.574 75.4499" stroke="#D3B161" stroke-width="0.795908" stroke-miterlimit="10"/>
<path d="M187.284 66.6153C187.602 65.8194 187.921 64.9439 188.239 64.148L185.851 63.2725L159.984 89.1395L161.178 92.1639" stroke="#D3B161" stroke-width="0.795908" stroke-miterlimit="10"/>
<path d="M161.18 92.0855C161.498 91.9263 161.816 91.7671 162.135 91.6875" stroke="#D3B161" stroke-width="0.795908" stroke-miterlimit="10"/>
<path d="M175.344 83.3303L179.005 79.6691C182.427 75.8487 185.213 71.4712 187.282 66.6162" stroke="#D3B161" stroke-width="0.795908" stroke-miterlimit="10"/>
<path d="M157.277 82.2947L178.846 60.7256L175.344 59.4521" stroke="#D3B161" stroke-width="0.795908" stroke-miterlimit="10"/>
<path d="M159.984 89.1405L185.851 63.2735L182.349 62" stroke="#D3B161" stroke-width="0.795908" stroke-miterlimit="10"/>
<path d="M182.348 62L178.846 60.7266L157.277 82.2957" stroke="#D3B161" stroke-width="0.795908" stroke-miterlimit="10"/>
<path d="M143.59 48.0723L161.179 92.1656C173.516 87.2309 183.544 77.2025 188.24 64.1496L143.59 48.0723Z" stroke="#3596A9" stroke-width="1.12804" stroke-miterlimit="10"/>
<path opacity="0.88" d="M161.176 92.0853C173.512 87.1507 183.541 77.1222 188.237 64.0693" stroke="#3596A9" stroke-width="0.795908" stroke-miterlimit="10"/>
<path d="M97.5859 59.693L143.749 13.5303V8.75488" stroke="#3596A9" stroke-width="0.795908" stroke-miterlimit="10"/>
<path d="M96.3086 51.4947L143.745 3.97904V0.556641C143.267 0.556641 142.79 0.556641 142.392 0.556641" stroke="#3596A9" stroke-width="0.795908" stroke-miterlimit="10"/>
<path d="M143.745 8.75396V3.97852L96.3086 51.4942" stroke="#3596A9" stroke-width="0.795908" stroke-miterlimit="10"/>
<path d="M143.669 18.3853L143.749 13.5303L97.5859 59.6929" stroke="#3596A9" stroke-width="0.795908" stroke-miterlimit="10"/>
<path d="M100.527 28.1751L123.768 4.93457C113.66 9.63043 105.303 17.7487 100.527 28.1751Z" stroke="#3596A9" stroke-width="0.795908" stroke-miterlimit="10"/>
<path d="M131.249 2.22754C128.702 2.94386 126.156 3.81935 123.768 4.93363L100.527 28.1741" stroke="#3596A9" stroke-width="0.795908" stroke-miterlimit="10"/>
<path d="M142.39 0.635742C140.639 0.715333 138.888 0.794924 137.216 1.0337L96.625 41.625" stroke="#3596A9" stroke-width="0.795908" stroke-miterlimit="10"/>
<path d="M97.2617 37.8051C96.9434 39.0786 96.7842 40.352 96.625 41.6255L137.216 1.03418C135.227 1.27295 133.157 1.7505 131.247 2.22804" stroke="#3596A9" stroke-width="0.795908" stroke-miterlimit="10"/>
<path d="M143.587 42.2627L126.156 59.6931L140.562 50.0626" stroke="#3596A9" stroke-width="0.795908" stroke-miterlimit="10"/>
<path d="M111.746 69.4031L126.152 59.6931L143.582 42.2627" stroke="#3596A9" stroke-width="0.795908" stroke-miterlimit="10"/>
<path d="M100.051 66.776L143.667 23.1602V18.3848" stroke="#3596A9" stroke-width="0.795908" stroke-miterlimit="10"/>
<path d="M143.667 27.9366V23.1611L100.051 66.7769" stroke="#3596A9" stroke-width="0.795908" stroke-miterlimit="10"/>
<path d="M143.665 37.4864V32.7109L103.312 73.0635C103.631 73.541 103.87 74.0186 104.188 74.4165" stroke="#3596A9" stroke-width="0.795908" stroke-miterlimit="10"/>
<path d="M103.312 73.0645L143.665 32.712V27.9365" stroke="#3596A9" stroke-width="0.795908" stroke-miterlimit="10"/>
<path d="M143.588 48.0731L143.747 0.637031C121.86 0.557441 102.121 15.6797 97.2662 37.8855C94.4009 51.018 97.2662 64.1505 104.191 74.4973L143.588 48.0731Z" stroke="#3596A9" stroke-width="1.12804" stroke-miterlimit="10"/>
<path d="M148.836 157.031V152.256L125.516 175.576" stroke="#D3B161" stroke-width="0.795908" stroke-miterlimit="10"/>
<path d="M125.516 185.047L148.836 161.807V157.031" stroke="#D3B161" stroke-width="0.795908" stroke-miterlimit="10"/>
<path d="M125.516 175.576L148.836 152.256V147.48" stroke="#D3B161" stroke-width="0.795908" stroke-miterlimit="10"/>
<path d="M148.836 147.48V142.704L125.516 166.024" stroke="#D3B161" stroke-width="0.795908" stroke-miterlimit="10"/>
<path d="M148.836 166.582V161.807L125.516 185.047" stroke="#D3B161" stroke-width="0.795908" stroke-miterlimit="10"/>
<path d="M125.516 194.598L148.836 171.357V166.582" stroke="#D3B161" stroke-width="0.795908" stroke-miterlimit="10"/>
<path d="M125.516 166.025L148.836 142.705V141.432H145.334" stroke="#D3B161" stroke-width="0.795908" stroke-miterlimit="10"/>
<path d="M125.516 142.148V146.923L131.007 141.432" stroke="#D3B161" stroke-width="0.795908" stroke-miterlimit="10"/>
<path d="M131.007 141.432L125.516 146.923V151.699" stroke="#D3B161" stroke-width="0.795908" stroke-miterlimit="10"/>
<path d="M148.836 176.133V171.357L125.516 194.598" stroke="#D3B161" stroke-width="0.795908" stroke-miterlimit="10"/>
<path d="M125.516 151.699V156.474L140.558 141.432" stroke="#D3B161" stroke-width="0.795908" stroke-miterlimit="10"/>
<path d="M145.334 141.432H140.558L125.516 156.474" stroke="#D3B161" stroke-width="0.795908" stroke-miterlimit="10"/>
<path d="M132.598 235.269L148.834 219.032V214.257" stroke="#D3B161" stroke-width="0.795908" stroke-miterlimit="10"/>
<path d="M148.839 233.279V228.583L142.074 235.269H146.85" stroke="#D3B161" stroke-width="0.795908" stroke-miterlimit="10"/>
<path d="M142.074 235.27L148.839 228.584V223.809" stroke="#D3B161" stroke-width="0.795908" stroke-miterlimit="10"/>
<path d="M148.834 223.809V219.033L132.598 235.27" stroke="#D3B161" stroke-width="0.795908" stroke-miterlimit="10"/>
<path d="M148.836 214.258V209.482L125.516 232.723V235.27" stroke="#D3B161" stroke-width="0.795908" stroke-miterlimit="10"/>
<path d="M125.516 204.149L148.836 180.908V176.133" stroke="#D3B161" stroke-width="0.795908" stroke-miterlimit="10"/>
<path d="M125.516 232.722L148.836 209.482V204.706" stroke="#D3B161" stroke-width="0.795908" stroke-miterlimit="10"/>
<path d="M125.516 213.7L148.836 190.38V185.604" stroke="#D3B161" stroke-width="0.795908" stroke-miterlimit="10"/>
<path d="M148.836 185.605V180.909L125.516 204.15" stroke="#D3B161" stroke-width="0.795908" stroke-miterlimit="10"/>
<path d="M148.836 195.155V190.38L125.516 213.7" stroke="#D3B161" stroke-width="0.795908" stroke-miterlimit="10"/>
<path d="M125.516 223.252L148.836 199.932V195.156" stroke="#D3B161" stroke-width="0.795908" stroke-miterlimit="10"/>
<path d="M148.836 204.706V199.931L125.516 223.251" stroke="#D3B161" stroke-width="0.795908" stroke-miterlimit="10"/>
<path d="M23.7991 205.742H23.242L0.558594 228.426V233.201" stroke="#D3B161" stroke-width="0.795908" stroke-miterlimit="10"/>
<path d="M13.6911 205.742L0.558594 218.875V223.65" stroke="#D3B161" stroke-width="0.795908" stroke-miterlimit="10"/>
<path d="M4.14018 205.742L0.558594 209.324V214.099" stroke="#D3B161" stroke-width="0.795908" stroke-miterlimit="10"/>
<path d="M21.7356 216.805L3.42969 235.111H8.20513" stroke="#D3B161" stroke-width="0.795908" stroke-miterlimit="10"/>
<path d="M17.6719 235.111H22.4473L23.8004 233.758" stroke="#D3B161" stroke-width="0.795908" stroke-miterlimit="10"/>
<path d="M23.8024 224.206L12.8984 235.11H17.6739" stroke="#D3B161" stroke-width="0.795908" stroke-miterlimit="10"/>
<path d="M148.756 141.273H125.516V235.111H148.756V141.273Z" stroke="#3596A9" stroke-width="1.12804" stroke-miterlimit="10"/>
<path d="M23.7991 217.92V235.111H0.558594V205.742H23.7991V213.781" stroke="#3596A9" stroke-width="1.12804" stroke-miterlimit="10"/>
<path d="M32.0781 225.479L55.3982 202.238V197.463" stroke="#3596A9" stroke-width="0.795908" stroke-miterlimit="10"/>
<path d="M32.0781 211.153V215.929L55.3982 192.688V190.698" stroke="#3596A9" stroke-width="0.795908" stroke-miterlimit="10"/>
<path d="M55.3982 197.464V192.688L32.0781 215.929" stroke="#3596A9" stroke-width="0.795908" stroke-miterlimit="10"/>
<path d="M47.7575 190.698L32.0781 206.457V211.153" stroke="#3596A9" stroke-width="0.795908" stroke-miterlimit="10"/>
<path d="M32.0781 201.682V206.457L47.7575 190.698" stroke="#3596A9" stroke-width="0.795908" stroke-miterlimit="10"/>
<path d="M32.0781 196.906L38.2862 190.698H35.3413" stroke="#3596A9" stroke-width="0.795908" stroke-miterlimit="10"/>
<path d="M38.2862 190.698L32.0781 196.906V201.682" stroke="#3596A9" stroke-width="0.795908" stroke-miterlimit="10"/>
<path d="M55.3982 216.565V211.789L32.0781 235.03V235.109" stroke="#3596A9" stroke-width="0.795908" stroke-miterlimit="10"/>
<path d="M41.5469 235.11L55.3957 221.261V216.565" stroke="#3596A9" stroke-width="0.795908" stroke-miterlimit="10"/>
<path d="M55.3982 207.015V202.239L32.0781 225.48" stroke="#3596A9" stroke-width="0.795908" stroke-miterlimit="10"/>
<path d="M55.3957 226.036V221.261L41.5469 235.11" stroke="#3596A9" stroke-width="0.795908" stroke-miterlimit="10"/>
<path d="M32.0781 230.255V235.03" stroke="#3596A9" stroke-width="0.795908" stroke-miterlimit="10"/>
<path d="M32.0781 235.031L55.3982 211.79V207.015" stroke="#3596A9" stroke-width="0.795908" stroke-miterlimit="10"/>
<path d="M55.3995 235.11V230.812L51.1016 235.11H55.3995Z" stroke="#3596A9" stroke-width="0.795908" stroke-miterlimit="10"/>
<path d="M51.1016 235.11L55.3995 230.813V226.037" stroke="#3596A9" stroke-width="0.795908" stroke-miterlimit="10"/>
<path d="M35.023 190.699H55.3982V235.111H32.0781V193.564" stroke="#3596A9" stroke-width="1.12804" stroke-miterlimit="10"/>
<path d="M87.6311 189.029L64.3906 212.27" stroke="#D3B161" stroke-width="0.795908" stroke-miterlimit="10"/>
<path d="M64.3906 202.719L85.8005 181.309" stroke="#D3B161" stroke-width="0.795908" stroke-miterlimit="10"/>
<path d="M87.6318 174.861H87.4727" stroke="#D3B161" stroke-width="0.795908" stroke-miterlimit="10"/>
<path d="M64.3906 212.27L87.6311 189.029" stroke="#D3B161" stroke-width="0.795908" stroke-miterlimit="10"/>
<path d="M87.4719 174.861H82.6965L64.3906 193.247" stroke="#D3B161" stroke-width="0.795908" stroke-miterlimit="10"/>
<path d="M68.4498 174.861H64.3906" stroke="#D3B161" stroke-width="0.795908" stroke-miterlimit="10"/>
<path d="M77.9211 174.861H73.1456L64.3906 183.696" stroke="#D3B161" stroke-width="0.795908" stroke-miterlimit="10"/>
<path d="M64.3906 183.696L73.1456 174.861H68.4498" stroke="#D3B161" stroke-width="0.795908" stroke-miterlimit="10"/>
<path d="M64.3906 193.247L82.6965 174.861H77.9211" stroke="#D3B161" stroke-width="0.795908" stroke-miterlimit="10"/>
<path d="M87.6311 212.826V208.051L64.3906 231.371V235.112" stroke="#D3B161" stroke-width="0.795908" stroke-miterlimit="10"/>
<path d="M64.3906 221.821L87.6311 198.58" stroke="#D3B161" stroke-width="0.795908" stroke-miterlimit="10"/>
<path d="M87.6311 222.378V217.603L70.1211 235.113" stroke="#D3B161" stroke-width="0.795908" stroke-miterlimit="10"/>
<path d="M79.6719 235.111L87.631 227.152V222.377" stroke="#D3B161" stroke-width="0.795908" stroke-miterlimit="10"/>
<path d="M87.631 231.929V227.153L79.6719 235.112H84.4473" stroke="#D3B161" stroke-width="0.795908" stroke-miterlimit="10"/>
<path d="M87.6311 203.356V198.58L64.3906 221.821" stroke="#D3B161" stroke-width="0.795908" stroke-miterlimit="10"/>
<path d="M64.3906 231.371L87.6311 208.051V203.355" stroke="#D3B161" stroke-width="0.795908" stroke-miterlimit="10"/>
<path d="M87.6311 179.876V235.112H64.3906V174.861H87.6311V177.01" stroke="#3596A9" stroke-width="1.12804" stroke-miterlimit="10"/>
<path d="M94.793 191.575L118.033 168.334V163.559" stroke="#3596A9" stroke-width="0.795908" stroke-miterlimit="10"/>
<path d="M118.033 158.784L94.793 182.104" stroke="#3596A9" stroke-width="0.795908" stroke-miterlimit="10"/>
<path d="M118.033 173.109V168.334L94.793 191.574" stroke="#3596A9" stroke-width="0.795908" stroke-miterlimit="10"/>
<path d="M94.793 182.104L118.033 158.784" stroke="#3596A9" stroke-width="0.795908" stroke-miterlimit="10"/>
<path d="M118.033 182.66V177.885L94.793 201.125" stroke="#3596A9" stroke-width="0.795908" stroke-miterlimit="10"/>
<path d="M94.793 210.677L118.033 187.437V182.661" stroke="#3596A9" stroke-width="0.795908" stroke-miterlimit="10"/>
<path d="M94.793 201.126L118.033 177.886V173.11" stroke="#3596A9" stroke-width="0.795908" stroke-miterlimit="10"/>
<path d="M94.793 157.908V158.227L95.1113 157.908H94.793Z" stroke="#3596A9" stroke-width="0.795908" stroke-miterlimit="10"/>
<path d="M95.1113 157.908L94.793 158.227V163.002L99.8868 157.908H95.1113Z" stroke="#3596A9" stroke-width="0.795908" stroke-miterlimit="10"/>
<path d="M94.793 172.553L109.438 157.908H104.662" stroke="#3596A9" stroke-width="0.795908" stroke-miterlimit="10"/>
<path d="M114.134 157.908H109.438L94.793 172.553" stroke="#3596A9" stroke-width="0.795908" stroke-miterlimit="10"/>
<path d="M104.658 157.908H99.8828" stroke="#3596A9" stroke-width="0.795908" stroke-miterlimit="10"/>
<path d="M98.2188 235.111H114.853H118.037V160.693" stroke="#3596A9" stroke-width="1.12804" stroke-miterlimit="10"/>
<path d="M118.031 225.561L108.48 235.111" stroke="#3596A9" stroke-width="0.795908" stroke-miterlimit="10"/>
<path d="M118.031 216.01L101.477 232.565" stroke="#3596A9" stroke-width="0.795908" stroke-miterlimit="10"/>
<path d="M94.793 220.227L118.033 196.907V192.211" stroke="#3596A9" stroke-width="0.795908" stroke-miterlimit="10"/>
<path d="M118.033 187.437L94.793 210.677" stroke="#3596A9" stroke-width="0.795908" stroke-miterlimit="10"/>
<path d="M118.033 201.684V196.908L94.793 220.228" stroke="#3596A9" stroke-width="0.795908" stroke-miterlimit="10"/>
<path d="M94.793 229.779L118.033 206.459V201.684" stroke="#3596A9" stroke-width="0.795908" stroke-miterlimit="10"/>
<path d="M118.033 206.458L94.793 229.778V234.554" stroke="#3596A9" stroke-width="0.795908" stroke-miterlimit="10"/>
<path d="M94.793 234.236V157.908H118.033V163.082" stroke="#3596A9" stroke-width="1.12804" stroke-miterlimit="10"/>
<path d="M401.93 189.426V202.001" stroke="#3596A9" stroke-width="1.12804" stroke-miterlimit="10"/>
<path d="M345.34 201.842V189.267" stroke="#3596A9" stroke-width="1.12804" stroke-miterlimit="10"/>
<path d="M349.477 197.782V203.752" stroke="#D3B161" stroke-width="0.795908" stroke-miterlimit="10"/>
<path d="M354.656 197.065V206.855" stroke="#D3B161" stroke-width="0.795908" stroke-miterlimit="10"/>
<path d="M361.418 200.33V210.597" stroke="#D3B161" stroke-width="0.795908" stroke-miterlimit="10"/>
<path d="M397.949 197.385V206.856" stroke="#D3B161" stroke-width="0.795908" stroke-miterlimit="10"/>
<path d="M373.595 199.295C389.199 199.295 401.849 194.948 401.849 189.585C401.849 184.222 389.199 179.875 373.595 179.875C357.99 179.875 345.34 184.222 345.34 189.585C345.34 194.948 357.99 199.295 373.595 199.295Z" stroke="#3596A9" stroke-width="1.12804" stroke-miterlimit="10"/>
<path d="M401.93 201.842V214.417" stroke="#4696A9" stroke-width="0.795908" stroke-miterlimit="10"/>
<path d="M345.34 214.338V201.763" stroke="#3596A9" stroke-width="1.12804" stroke-miterlimit="10"/>
<path d="M349.477 210.278V216.168" stroke="#D3B161" stroke-width="0.795908" stroke-miterlimit="10"/>
<path d="M354.656 209.244V219.034" stroke="#D3B161" stroke-width="0.795908" stroke-miterlimit="10"/>
<path d="M361.418 212.746V222.615" stroke="#D3B161" stroke-width="0.795908" stroke-miterlimit="10"/>
<path d="M397.949 209.88V219.351" stroke="#D3B161" stroke-width="0.795908" stroke-miterlimit="10"/>
<path d="M401.934 214.019V226.594" stroke="#4696A9" stroke-width="0.795908" stroke-miterlimit="10"/>
<path d="M345.34 226.435V213.859" stroke="#3596A9" stroke-width="1.12804" stroke-miterlimit="10"/>
<path d="M349.48 222.375V228.344" stroke="#D3B161" stroke-width="0.795908" stroke-miterlimit="10"/>
<path d="M354.652 221.659V231.369" stroke="#D3B161" stroke-width="0.795908" stroke-miterlimit="10"/>
<path d="M361.418 224.923V235.11" stroke="#D3B161" stroke-width="0.795908" stroke-miterlimit="10"/>
<path d="M397.953 221.979V231.45" stroke="#D3B161" stroke-width="0.795908" stroke-miterlimit="10"/>
<path d="M388.717 234.632C384.339 235.587 379.166 236.145 373.595 236.145C357.995 236.145 345.34 231.767 345.34 226.435" stroke="#3596A9" stroke-width="1.12804" stroke-miterlimit="10"/>
<path d="M401.852 226.435C401.852 229.141 398.668 231.528 393.574 233.279" stroke="#3596A9" stroke-width="1.12804" stroke-miterlimit="10"/>
<path d="M458.441 201.045V213.62" stroke="#3596A9" stroke-width="1.12804" stroke-miterlimit="10"/>
<path d="M401.93 213.462V200.887" stroke="#3596A9" stroke-width="1.12804" stroke-miterlimit="10"/>
<path d="M406.07 209.403V215.373" stroke="#D3B161" stroke-width="0.795908" stroke-miterlimit="10"/>
<path d="M411.16 208.687V218.397" stroke="#D3B161" stroke-width="0.795908" stroke-miterlimit="10"/>
<path d="M418.008 211.949V222.216" stroke="#D3B161" stroke-width="0.795908" stroke-miterlimit="10"/>
<path d="M454.461 209.005V218.476" stroke="#D3B161" stroke-width="0.795908" stroke-miterlimit="10"/>
<path d="M438.86 210.437C436.154 210.755 433.209 210.914 430.184 210.914C414.585 210.914 401.93 206.537 401.93 201.204C401.93 195.872 414.585 191.494 430.184 191.494C445.784 191.494 458.439 195.872 458.439 201.204C458.439 203.672 455.813 205.9 451.435 207.651" stroke="#3596A9" stroke-width="1.12804" stroke-miterlimit="10"/>
<path d="M458.441 213.462V226.037" stroke="#3596A9" stroke-width="1.12804" stroke-miterlimit="10"/>
<path d="M401.93 225.878V213.303" stroke="#3596A9" stroke-width="1.12804" stroke-miterlimit="10"/>
<path d="M406.066 221.818V227.788" stroke="#D3B161" stroke-width="0.795908" stroke-miterlimit="10"/>
<path d="M411.164 220.625V230.892" stroke="#D3B161" stroke-width="0.795908" stroke-miterlimit="10"/>
<path d="M418.004 224.366V234.713" stroke="#D3B161" stroke-width="0.795908" stroke-miterlimit="10"/>
<path d="M454.461 221.501V230.972" stroke="#D3B161" stroke-width="0.795908" stroke-miterlimit="10"/>
<path d="M458.439 225.878C458.439 231.211 445.784 235.588 430.184 235.588C414.585 235.588 401.93 231.211 401.93 225.878" stroke="#3596A9" stroke-width="1.12804" stroke-miterlimit="10"/>
<path d="M401.849 214.258C401.849 219.59 389.194 223.968 373.595 223.968C357.995 223.968 345.34 219.59 345.34 214.258" stroke="#3596A9" stroke-width="1.12804" stroke-miterlimit="10"/>
<path d="M401.849 201.842C401.849 207.174 389.194 211.552 373.595 211.552C357.995 211.552 345.34 207.174 345.34 201.842" stroke="#3596A9" stroke-width="1.12804" stroke-miterlimit="10"/>
<path d="M458.439 213.462C458.439 218.794 445.784 223.172 430.184 223.172C414.585 223.172 401.93 218.794 401.93 213.462" stroke="#3596A9" stroke-width="1.12804" stroke-miterlimit="10"/>
<path d="M332.372 123.047L338.102 195.077C338.5 199.852 339.933 204.469 342.241 208.687C349.086 220.944 364.049 248.244 369.779 265.117C371.212 269.335 374.873 272.28 379.33 272.837C386.573 273.713 396.84 276.896 399.865 287.164C400.581 289.71 398.671 292.257 395.965 292.337L351.871 292.974C350.439 292.974 349.165 292.257 348.369 291.064L303.003 220.307C301.888 218.556 299.66 217.92 297.75 218.875L246.254 244.423C245.697 244.742 245.22 245.14 244.822 245.617L237.34 255.566C236.465 256.76 236.306 258.431 236.942 259.784L242.036 270.449C242.673 271.803 244.026 272.678 245.538 272.758C257.079 273.394 264.242 280.08 268.142 285.333C270.132 287.959 268.221 291.78 264.879 291.78L229.54 292.178C228.108 292.178 226.834 291.461 226.038 290.268L190.143 233.042C189.745 232.485 189.267 232.007 188.631 231.609L168.892 220.705C168.017 220.228 167.38 219.432 166.982 218.477C164.276 210.836 153.054 175.816 172.792 168.892C194.998 161.171 247.448 121.694 247.448 121.694" fill="#DB891D"/>
<path d="M240.528 126.788C231.614 131.564 155.604 163.639 151.306 165.469C151.147 165.549 151.068 165.628 150.909 165.708C148.441 167.141 125.36 182.263 125.758 236.942C125.758 238.772 124.325 240.364 122.495 240.523L117.003 241.001C115.411 241.16 114.138 242.354 113.819 243.866L107.691 274.907C107.532 275.702 107.134 276.339 106.576 276.896C104.746 278.568 100.607 282.627 99.4133 287.163C98.7766 289.472 100.528 291.7 102.836 291.7L138.89 291.859C141.358 291.859 143.188 289.392 142.313 287.084C141.437 284.696 139.686 281.831 136.343 279.284C135.07 278.329 134.513 276.658 135.15 275.145L139.05 264.958C139.368 264.082 140.084 263.366 140.88 262.968C148.362 259.625 184.973 241.797 189.271 214.815C189.51 213.224 190.704 212.03 192.296 211.791C195.161 211.393 203.438 207.493 209.328 206.22C224.371 203.036 242.677 200.091 254.138 189.983C265.201 180.114 287.884 183.695 303.882 187.914C314.07 190.62 324.337 184.093 326.167 173.667C328.635 159.977 325.61 153.371 319.243 151.222" fill="#FFC871"/>
<path d="M209.648 193.565L203.998 236.066C203.759 237.897 205.032 239.489 206.863 239.728C219.438 241.001 264.089 245.697 268.386 248.323C273.321 251.348 267.909 261.217 279.211 263.366C287.568 264.958 298.631 264.799 303.804 264.64C305.476 264.56 306.829 263.207 306.908 261.536C307.147 255.327 306.51 240.683 295.606 231.609C284.305 222.218 255.732 214.895 244.748 212.348C242.599 211.871 241.564 209.404 242.758 207.573L254.14 188.71" fill="#FFC871"/>
<path d="M362.061 95.1109C374.954 91.3701 375.114 82.1376 374.954 82.2172C364.767 84.2069 355.216 69.3235 355.216 69.3235C355.216 69.3235 352.749 63.5929 366.995 64.3888C345.904 44.4116 327.518 42.5014 327.518 42.5014C327.518 42.5014 336.114 30.8811 333.886 31.1995C313.59 34.1444 300.537 18.8629 287.325 24.8322C287.166 24.9118 286.131 12.4957 285.892 12.6548C273.795 19.9772 256.603 26.5036 244.426 33.428C230.577 41.3871 233.681 51.1768 235.511 59.6134C235.034 62.1603 233.999 64.6276 231.85 66.3786C226.518 70.9153 230.418 85.0029 230.418 85.0029L233.283 84.2865C230.975 89.7783 221.901 92.8823 223.175 96.9415C226.756 107.925 224.926 115.009 224.926 115.009C225.801 115.327 222.618 126.072 220.867 127.345C219.195 128.539 228.189 124.719 229.224 127.106C230.975 131.245 229.462 136.976 227.234 141.91L240.366 137.294C240.366 137.294 248.485 163.4 279.843 165.867C279.843 165.867 275.466 160.375 283.743 152.257C285.335 150.745 292.498 162.683 295.921 171.836C296.16 172.553 315.023 159.5 314.067 154.326C314.067 154.167 318.365 167.538 327.837 166.424C327.916 166.424 324.255 159.579 325.449 158.306C325.449 158.306 328.633 172.473 352.351 159.579C352.351 159.579 345.267 136.419 346.779 137.453C350.759 140.08 367.473 132.917 367.393 132.837C361.822 128.857 361.106 117.158 358.957 109.994C358.718 109.198 365.324 111.905 365.403 111.586C368.03 105.935 361.185 95.3497 362.061 95.1109Z" fill="#683B11"/>
<path d="M235.435 69.4827C236.31 68.9256 236.31 67.5725 235.355 67.1746C235.116 67.095 235.037 66.9358 235.116 66.7766C237.106 61.2849 244.269 57.0665 247.373 55.4747C248.09 55.0768 249.045 55.4747 249.204 56.3502L248.886 59.4543C249.045 60.2502 249.92 60.6481 250.637 60.3298L267.828 55.0768C277.061 50.6993 297.754 64.0705 287.567 75.452C282.234 81.4213 270.534 82.9335 266.475 84.6845C265.6 85.0825 265.44 86.1968 266.157 86.8335C268.704 89.1416 274.593 97.1007 266.475 101.797C260.983 104.98 238.459 111.825 229.545 97.7374C229.067 96.9415 227.874 96.8619 227.316 97.6578C225.804 100.046 223.655 102.592 220.87 100.921C215.935 97.4987 217.925 84.9233 220.074 80.4662C220.87 78.7948 230.182 72.7459 235.435 69.4827Z" fill="#FFC871"/>
<path d="M219.672 80.7049L235.59 80.2274C236.943 80.1478 237.659 81.8192 236.704 82.7743L228.506 90.8925C227.87 91.5292 226.915 91.4496 226.358 90.8129L218.876 82.5355C218.16 81.8988 218.717 80.7049 219.672 80.7049Z" fill="#411A00"/>
<path d="M224.605 102.672C223.809 105.856 222.615 113.576 229.301 118.59C235.031 122.808 243.07 122.41 248.164 118.033C250.233 116.282 252.064 114.053 253.019 111.507C253.496 110.074 252.143 108.562 250.472 108.641C245.537 108.96 235.986 108.88 232.007 103.309C230.733 101.558 228.505 100.603 226.435 101.16C226.356 101.16 226.356 101.16 226.276 101.16C225.401 101.398 224.764 101.876 224.605 102.672Z" fill="#FFECD2"/>
<path d="M149.152 169.926C149.152 169.926 51.4944 238.215 70.2779 181.228L68.6065 178.203C68.6065 178.203 47.0374 213.621 82.2165 214.099C117.396 214.576 145.332 183.377 145.332 183.377" fill="#FFC871"/>
<path d="M81.0254 155.043C81.105 154.963 50.0646 167.698 66.6991 182.979C84.9254 199.773 94.1579 154.804 94.1579 154.804C94.1579 154.804 81.9805 152.814 78.1602 162.365C78.1602 162.365 78.7969 157.59 81.0254 155.043Z" fill="#683B11"/>
<path d="M206.621 196.19L200.97 238.692C200.731 240.522 202.005 242.114 203.835 242.353C216.411 243.627 261.061 248.322 265.359 250.949C270.294 253.973 264.882 263.843 276.183 265.992" stroke="#003548" stroke-width="1.12804" stroke-miterlimit="10" stroke-linecap="round"/>
<path d="M120.027 237.657L114.535 238.135C112.943 238.294 111.67 239.488 111.351 241L105.223 272.04C105.064 272.836 104.666 273.473 104.108 274.03C102.278 275.702 98.1392 279.761 96.9453 284.297" stroke="#003548" stroke-width="1.12804" stroke-miterlimit="10" stroke-linecap="round"/>
</g>
<defs>
<clipPath id="clip0">
<rect width="459" height="292.894" fill="white"/>
</clipPath>
</defs>
</svg>
