<?xml version="1.0" encoding="utf-8"?>
<!-- Generator: Adobe Illustrator 25.2.1, SVG Export Plug-In . SVG Version: 6.00 Build 0)  -->
<svg version="1.1" id="Camada_1" xmlns="http://www.w3.org/2000/svg" xmlns:xlink="http://www.w3.org/1999/xlink" x="0px" y="0px"
	 viewBox="0 0 103 30" style="enable-background:new 0 0 103 30;" xml:space="preserve">
<style type="text/css">
	.st0{fill:#1294AA;}
	.st1{fill:#FFFFFF;}
</style>
<g>
	<g>
		<path class="st0" d="M5.3,27.9c0,0.7-0.6,1.3-1.3,1.3H1.3c-0.8,0-1.3-0.6-1.3-1.3v-4.3c0-0.8,0.6-1.3,1.3-1.3H4
			c0.8,0,1.3,0.6,1.3,1.3V27.9L5.3,27.9z"/>
		<path class="st0" d="M12.6,27.9c0,0.7-0.6,1.3-1.3,1.3H8.6c-0.8,0-1.3-0.6-1.3-1.3V16.7c0-0.8,0.6-1.3,1.3-1.3h2.7
			c0.8,0,1.3,0.6,1.3,1.3V27.9z"/>
		<path class="st0" d="M19.8,27.9c0,0.7-0.6,1.3-1.3,1.3h-2.7c-0.8,0-1.3-0.6-1.3-1.3V9.4c0-0.8,0.6-1.3,1.3-1.3h2.7
			c0.8,0,1.3,0.6,1.3,1.3V27.9z"/>
		<path class="st1" d="M28.8,27.9c0,0.7-0.6,1.3-1.3,1.3H23c-0.8,0-1.3-0.6-1.3-1.3V2.1c0-0.8,0.6-1.3,1.3-1.3h4.5
			c0.8,0,1.3,0.6,1.3,1.3V27.9L28.8,27.9z"/>
		<path class="st1" d="M41.5,6.2H32c-0.8,0-1.3-0.6-1.3-1.3V2c0-0.8,0.6-1.3,1.3-1.3h10.5c4.5,0.1,8,3.6,8,7.9V9c0,3-1.8,5.7-4.4,7
			l4.6,12c0.3,0.7-0.1,1.2-0.9,1.2h-4.2c-0.8,0-1.5-0.6-1.7-1.2L40,16.9h-1.3H37v11c0,0.8-0.6,1.3-1.3,1.3H32
			c-0.8,0-1.3-0.6-1.3-1.3v-11V14v-2.3h10.8c1.4,0,2.7-1.1,2.7-2.7V8.9C44.1,7.4,42.9,6.2,41.5,6.2z"/>
		<path class="st0" d="M49.8,16.8v0.8h4.1v11.7h0.9V17.5H59v-0.8C59,16.8,49.8,16.8,49.8,16.8z"/>
		<path class="st0" d="M60.9,22.8h2c1.9,0,3.2-1,3.2-2.8c0-1.9-1.4-2.7-3.4-2.7c-0.9,0-1.5,0.1-1.8,0.2V22.8L60.9,22.8z M59.9,16.9
			c0.8-0.2,1.8-0.3,2.8-0.3c1.6,0,2.7,0.4,3.4,1c0.6,0.5,0.9,1.3,0.9,2.2c0,1.7-1,2.8-2.5,3.2l0,0c1,0.3,1.6,1.2,1.9,2.7
			c0.5,1.9,0.7,2.9,1,3.3h-1c-0.2-0.4-0.5-1.4-0.8-3c-0.4-1.8-1.1-2.6-2.9-2.7h-1.9v5.7h-1V16.9z"/>
		<path class="st0" d="M75.3,24.1l-1.5-4.2c-0.3-0.9-0.5-1.5-0.7-2.2l0,0c-0.2,0.8-0.4,1.3-0.7,2.2l-1.5,4.2H75.3L75.3,24.1z
			 M70.6,24.8L69,29.2h-1l4.6-12.5h0.9l4.6,12.5h-1l-1.6-4.4H70.6z"/>
		<path class="st0" d="M91.5,16.8v12.5h6.5v-0.8h-5.6V23h5v-0.8h-5v-4.8h5.3v-0.8C97.7,16.8,91.5,16.8,91.5,16.8z"/>
		<path class="st0" d="M88,18.4c-1-1-2.8-1.7-5-1.7c-1.1,0-2.3,0.1-3.2,0.3l0,0v12.3c1,0.1,1.8,0.1,2.8,0.1c2.4,0,4.3-0.7,5.4-1.9
			s1.6-2.9,1.6-4.7C89.5,20.8,88.9,19.4,88,18.4z M82.5,28.6c-0.8,0-1.5,0-2-0.1l0,0V17.6c0.6-0.1,1.3-0.2,2.3-0.2
			c4.1,0,5.8,2.2,5.8,5.3C88.6,26.4,86.6,28.6,82.5,28.6z"/>
	</g>
	<g>
		<path class="st1" d="M101.3,13.6c1,0,1.7,0.8,1.7,1.7c0,1-0.8,1.7-1.7,1.7c-1,0-1.7-0.8-1.7-1.7C99.5,14.4,100.3,13.6,101.3,13.6z
			 M102.7,15.3c0-0.8-0.6-1.5-1.4-1.5c-0.8,0-1.4,0.7-1.4,1.5c0,0.8,0.6,1.5,1.4,1.5C102,16.8,102.7,16.1,102.7,15.3z M100.6,14.3
			h0.8c0.5,0,0.7,0.2,0.7,0.6c0,0.4-0.2,0.5-0.5,0.6l0.6,0.9h-0.3l-0.6-0.9h-0.3v0.9h-0.3V14.3z M101.2,15.2c0.3,0,0.5,0,0.5-0.3
			c0-0.3-0.2-0.3-0.4-0.3h-0.4v0.6H101.2z"/>
	</g>
</g>
</svg>
